<svg xmlns="http://www.w3.org/2000/svg" xmlns:xlink="http://www.w3.org/1999/xlink" width="54" zoomAndPan="magnify" viewBox="0 0 40.5 40.5" height="54" preserveAspectRatio="xMidYMid meet" version="1.0"><defs><clipPath id="cdf2740024"><path d="M 1.085938 1.085938 L 39.335938 1.085938 L 39.335938 39.335938 L 1.085938 39.335938 Z M 1.085938 1.085938 " clip-rule="nonzero"/></clipPath><clipPath id="21b98dcf59"><path d="M 5 23 L 35 23 L 35 39.335938 L 5 39.335938 Z M 5 23 " clip-rule="nonzero"/></clipPath></defs><g clip-path="url(#cdf2740024)"><path fill="#b3b3b3" d="M 39.339844 20.214844 C 39.339844 25.105469 37.503906 29.570312 34.480469 32.949219 C 30.976562 36.871094 25.882812 39.339844 20.214844 39.339844 C 14.542969 39.339844 9.449219 36.871094 5.949219 32.949219 C 2.925781 29.570312 1.089844 25.105469 1.089844 20.214844 C 1.089844 9.652344 9.648438 1.085938 20.214844 1.085938 C 30.777344 1.085938 39.339844 9.652344 39.339844 20.214844 " fill-opacity="1" fill-rule="nonzero"/></g><path fill="#f2f2f2" d="M 20.214844 23.738281 C 23.679688 23.738281 26.835938 19.816406 26.835938 15.507812 C 26.835938 11.441406 26.050781 7.417969 20.214844 7.417969 C 14.375 7.417969 13.589844 11.441406 13.589844 15.507812 C 13.589844 19.816406 16.746094 23.738281 20.214844 23.738281 " fill-opacity="1" fill-rule="nonzero"/><g clip-path="url(#21b98dcf59)"><path fill="#f2f2f2" d="M 34.480469 32.949219 C 30.976562 36.871094 25.882812 39.339844 20.214844 39.339844 C 14.542969 39.339844 9.449219 36.871094 5.949219 32.949219 C 5.886719 30.589844 7.460938 25.117188 15.484375 23.429688 C 16.855469 24.832031 18.542969 25.625 20.214844 25.625 C 21.882812 25.625 23.570312 24.832031 24.941406 23.429688 C 32.96875 25.117188 34.539062 30.589844 34.480469 32.949219 " fill-opacity="1" fill-rule="nonzero"/></g></svg>