<svg xmlns="http://www.w3.org/2000/svg" xmlns:xlink="http://www.w3.org/1999/xlink" width="378" zoomAndPan="magnify" viewBox="0 0 283.5 112.499997" height="150" preserveAspectRatio="xMidYMid meet" version="1.0"><defs><clipPath id="d51627dd97"><path d="M 0.378906 0 L 282.625 0 L 282.625 112.003906 L 0.378906 112.003906 Z M 0.378906 0 " clip-rule="nonzero"/></clipPath><clipPath id="ba941db4a3"><path d="M 84 0 L 97.0625 0 L 97.0625 6 L 84 6 Z M 84 0 " clip-rule="nonzero"/></clipPath><clipPath id="8cd3065b3f"><path d="M 56 0 L 57 0 L 57 23.65625 L 56 23.65625 Z M 56 0 " clip-rule="nonzero"/></clipPath><clipPath id="0fece03d20"><path d="M 177.769531 92.726562 L 269.773438 92.726562 L 269.773438 112.003906 L 177.769531 112.003906 Z M 177.769531 92.726562 " clip-rule="nonzero"/></clipPath><clipPath id="9c42039a93"><path d="M 181 96 L 267 96 L 267 112.003906 L 181 112.003906 Z M 181 96 " clip-rule="nonzero"/></clipPath><clipPath id="073a9d7683"><path d="M 194 111 L 196 111 L 196 112.003906 L 194 112.003906 Z M 194 111 " clip-rule="nonzero"/></clipPath><clipPath id="44d57c1845"><path d="M 187 102 L 261 102 L 261 112.003906 L 187 112.003906 Z M 187 102 " clip-rule="nonzero"/></clipPath><clipPath id="545deb4e96"><path d="M 243 112 L 251 112 L 251 112.003906 L 243 112.003906 Z M 243 112 " clip-rule="nonzero"/></clipPath><clipPath id="0943ae928a"><path d="M 193 108 L 254 108 L 254 112.003906 L 193 112.003906 Z M 193 108 " clip-rule="nonzero"/></clipPath><clipPath id="0621fcbd6e"><path d="M 219 112 L 227 112 L 227 112.003906 L 219 112.003906 Z M 219 112 " clip-rule="nonzero"/></clipPath><clipPath id="492591d6ae"><path d="M 26 99 L 76 99 L 76 112.003906 L 26 112.003906 Z M 26 99 " clip-rule="nonzero"/></clipPath><clipPath id="dda5370df2"><path d="M 26.59375 127.042969 L 74.882812 99.988281 L 75.25 100.640625 L 26.960938 127.695312 Z M 26.59375 127.042969 " clip-rule="nonzero"/></clipPath><clipPath id="f45ba4b13b"><path d="M 72.667969 96.375 L 79.746094 96.375 L 79.746094 103.457031 L 72.667969 103.457031 Z M 72.667969 96.375 " clip-rule="nonzero"/></clipPath><clipPath id="8c54add5ad"><path d="M 215 0 L 262 0 L 262 15 L 215 15 Z M 215 0 " clip-rule="nonzero"/></clipPath><clipPath id="f25ef2b753"><path d="M 215.867188 13.976562 L 260.894531 -11.25 L 261.257812 -10.597656 L 216.230469 14.628906 Z M 215.867188 13.976562 " clip-rule="nonzero"/></clipPath><clipPath id="9f8110371c"><path d="M 212.574219 11.238281 L 219.144531 11.238281 L 219.144531 17.808594 L 212.574219 17.808594 Z M 212.574219 11.238281 " clip-rule="nonzero"/></clipPath><clipPath id="d66a79caf4"><path d="M 0.378906 43 L 1 43 L 1 56 L 0.378906 56 Z M 0.378906 43 " clip-rule="nonzero"/></clipPath><clipPath id="a54399031b"><path d="M 0.378906 47 L 6 47 L 6 60 L 0.378906 60 Z M 0.378906 47 " clip-rule="nonzero"/></clipPath><clipPath id="dc97c1c7b7"><path d="M 0.378906 48 L 5 48 L 5 59 L 0.378906 59 Z M 0.378906 48 " clip-rule="nonzero"/></clipPath><clipPath id="3900283fcf"><path d="M 17 53 L 29 53 L 29 64.832031 L 17 64.832031 Z M 17 53 " clip-rule="nonzero"/></clipPath><clipPath id="c04bf06f07"><path d="M 6 36.40625 L 18 36.40625 L 18 48 L 6 48 Z M 6 36.40625 " clip-rule="nonzero"/></clipPath><clipPath id="058b627963"><path d="M 39 47 L 50.679688 47 L 50.679688 60 L 39 60 Z M 39 47 " clip-rule="nonzero"/></clipPath><clipPath id="183daeec3c"><path d="M 254.542969 41 L 259 41 L 259 46 L 254.542969 46 Z M 254.542969 41 " clip-rule="nonzero"/></clipPath><clipPath id="052db5f9e1"><path d="M 254.542969 19 L 269 19 L 269 35 L 254.542969 35 Z M 254.542969 19 " clip-rule="nonzero"/></clipPath><clipPath id="989969f7be"><path d="M 278 33 L 282.625 33 L 282.625 37 L 278 37 Z M 278 33 " clip-rule="nonzero"/></clipPath><clipPath id="b9670192ae"><path d="M 275 11.21875 L 282.625 11.21875 L 282.625 26 L 275 26 Z M 275 11.21875 " clip-rule="nonzero"/></clipPath></defs><g clip-path="url(#d51627dd97)"><path fill="#ffffff" d="M 0.378906 0 L 283.121094 0 L 283.121094 118.933594 L 0.378906 118.933594 Z M 0.378906 0 " fill-opacity="1" fill-rule="nonzero"/><path fill="#ffffff" d="M 0.378906 0 L 283.121094 0 L 283.121094 112.199219 L 0.378906 112.199219 Z M 0.378906 0 " fill-opacity="1" fill-rule="nonzero"/><path fill="#ffffff" d="M 0.378906 0 L 283.121094 0 L 283.121094 112.199219 L 0.378906 112.199219 Z M 0.378906 0 " fill-opacity="1" fill-rule="nonzero"/></g><path fill="#a6a6a6" d="M 86.914062 7.261719 C 78.664062 15.507812 67.726562 20.039062 56.074219 20.039062 L 56.074219 20.472656 C 67.84375 20.472656 78.902344 15.90625 87.210938 7.578125 Z M 86.914062 7.261719 " fill-opacity="1" fill-rule="nonzero"/><path fill="#a6a6a6" d="M 25.257812 7.261719 L 24.941406 7.578125 C 33.246094 15.886719 44.324219 20.472656 56.074219 20.472656 L 56.074219 20.039062 C 44.445312 20.039062 33.503906 15.507812 25.257812 7.261719 Z M 25.257812 7.261719 " fill-opacity="1" fill-rule="nonzero"/><path fill="#a6a6a6" d="M 12.496094 -23.570312 L 12.0625 -23.570312 C 12.0625 -11.804688 16.632812 -0.75 24.960938 7.558594 L 25.277344 7.242188 C 17.027344 -0.964844 12.496094 -11.921875 12.496094 -23.570312 Z M 12.496094 -23.570312 " fill-opacity="1" fill-rule="nonzero"/><path fill="#a6a6a6" d="M 56.09375 16.894531 L 56.09375 17.328125 C 67.015625 17.328125 77.28125 13.078125 85.015625 5.34375 L 84.699219 5.027344 C 77.0625 12.679688 66.894531 16.894531 56.09375 16.894531 Z M 56.09375 16.894531 " fill-opacity="1" fill-rule="nonzero"/><g clip-path="url(#ba941db4a3)"><path fill="#a6a6a6" d="M 84.699219 5.046875 L 85.015625 5.363281 C 92.75 -2.371094 97.003906 -12.636719 97.003906 -23.550781 L 96.566406 -23.550781 C 96.546875 -12.753906 92.355469 -2.585938 84.699219 5.046875 Z M 84.699219 5.046875 " fill-opacity="1" fill-rule="nonzero"/></g><path fill="#a6a6a6" d="M 30.816406 3.703125 C 30.734375 3.621094 30.578125 3.621094 30.5 3.722656 C 30.417969 3.820312 30.417969 3.957031 30.519531 4.039062 C 30.675781 4.175781 30.835938 4.335938 31.011719 4.492188 C 31.050781 4.53125 31.09375 4.550781 31.152344 4.550781 C 31.210938 4.550781 31.269531 4.53125 31.308594 4.472656 C 31.386719 4.394531 31.386719 4.234375 31.289062 4.15625 C 31.132812 4 30.972656 3.859375 30.816406 3.703125 Z M 30.816406 3.703125 " fill-opacity="1" fill-rule="nonzero"/><path fill="#a6a6a6" d="M 33.859375 6.234375 C 33.683594 6.09375 33.503906 5.976562 33.328125 5.835938 C 33.226562 5.757812 33.089844 5.777344 33.011719 5.878906 C 32.929688 5.976562 32.953125 6.113281 33.050781 6.195312 C 33.226562 6.332031 33.40625 6.449219 33.585938 6.609375 C 33.625 6.628906 33.664062 6.648438 33.722656 6.648438 C 33.800781 6.648438 33.859375 6.628906 33.902344 6.570312 C 33.960938 6.449219 33.941406 6.3125 33.859375 6.234375 Z M 33.859375 6.234375 " fill-opacity="1" fill-rule="nonzero"/><path fill="#a6a6a6" d="M 28.5 1.367188 C 28.421875 1.289062 28.28125 1.269531 28.183594 1.347656 C 28.105469 1.425781 28.085938 1.566406 28.164062 1.664062 C 28.300781 1.824219 28.460938 1.980469 28.621094 2.140625 C 28.660156 2.179688 28.71875 2.21875 28.777344 2.21875 C 28.835938 2.21875 28.875 2.199219 28.914062 2.160156 C 28.996094 2.078125 28.996094 1.941406 28.9375 1.84375 C 28.796875 1.703125 28.640625 1.546875 28.5 1.367188 Z M 28.5 1.367188 " fill-opacity="1" fill-rule="nonzero"/><path fill="#a6a6a6" d="M 36.570312 8.074219 C 36.375 7.953125 36.195312 7.835938 36.015625 7.714844 C 35.917969 7.65625 35.78125 7.695312 35.699219 7.796875 C 35.640625 7.894531 35.679688 8.03125 35.78125 8.113281 C 35.976562 8.230469 36.15625 8.347656 36.332031 8.46875 C 36.355469 8.488281 36.414062 8.488281 36.453125 8.488281 C 36.53125 8.488281 36.589844 8.449219 36.648438 8.390625 C 36.691406 8.289062 36.671875 8.152344 36.570312 8.074219 Z M 36.570312 8.074219 " fill-opacity="1" fill-rule="nonzero"/><path fill="#a6a6a6" d="M 39.441406 9.695312 C 39.242188 9.59375 39.042969 9.496094 38.847656 9.378906 C 38.746094 9.320312 38.609375 9.359375 38.550781 9.457031 C 38.488281 9.554688 38.53125 9.695312 38.628906 9.753906 C 38.828125 9.851562 39.023438 9.953125 39.222656 10.070312 C 39.242188 10.089844 39.28125 10.089844 39.320312 10.089844 C 39.398438 10.089844 39.480469 10.050781 39.519531 9.972656 C 39.578125 9.890625 39.539062 9.753906 39.441406 9.695312 Z M 39.441406 9.695312 " fill-opacity="1" fill-rule="nonzero"/><path fill="#a6a6a6" d="M 42.445312 11.019531 C 42.25 10.941406 42.03125 10.863281 41.832031 10.761719 C 41.714844 10.722656 41.59375 10.761719 41.535156 10.882812 C 41.496094 11 41.535156 11.117188 41.65625 11.179688 C 41.851562 11.257812 42.070312 11.355469 42.269531 11.433594 C 42.289062 11.453125 42.328125 11.453125 42.347656 11.453125 C 42.425781 11.453125 42.523438 11.394531 42.546875 11.316406 C 42.605469 11.199219 42.566406 11.078125 42.445312 11.019531 Z M 42.445312 11.019531 " fill-opacity="1" fill-rule="nonzero"/><path fill="#a6a6a6" d="M 76.984375 7.183594 C 76.804688 7.300781 76.609375 7.441406 76.449219 7.558594 C 76.351562 7.636719 76.3125 7.757812 76.390625 7.875 C 76.429688 7.933594 76.507812 7.972656 76.589844 7.972656 C 76.628906 7.972656 76.667969 7.953125 76.707031 7.953125 C 76.90625 7.835938 77.082031 7.695312 77.261719 7.578125 C 77.359375 7.5 77.398438 7.378906 77.320312 7.261719 C 77.242188 7.144531 77.101562 7.101562 76.984375 7.183594 Z M 76.984375 7.183594 " fill-opacity="1" fill-rule="nonzero"/><path fill="#a6a6a6" d="M 71.265625 10.386719 C 71.070312 10.464844 70.871094 10.566406 70.675781 10.644531 C 70.554688 10.683594 70.515625 10.820312 70.554688 10.941406 C 70.574219 11.019531 70.675781 11.078125 70.753906 11.078125 C 70.773438 11.078125 70.8125 11.078125 70.832031 11.058594 C 71.03125 10.980469 71.246094 10.882812 71.425781 10.800781 C 71.542969 10.761719 71.582031 10.625 71.542969 10.503906 C 71.503906 10.386719 71.367188 10.347656 71.265625 10.386719 Z M 71.265625 10.386719 " fill-opacity="1" fill-rule="nonzero"/><path fill="#a6a6a6" d="M 79.636719 5.203125 C 79.457031 5.34375 79.296875 5.480469 79.121094 5.621094 C 79.023438 5.699219 79 5.835938 79.101562 5.9375 C 79.140625 5.996094 79.199219 6.015625 79.277344 6.015625 C 79.316406 6.015625 79.378906 5.996094 79.417969 5.976562 C 79.59375 5.835938 79.773438 5.699219 79.929688 5.5625 C 80.011719 5.480469 80.03125 5.34375 79.953125 5.246094 C 79.871094 5.144531 79.714844 5.125 79.636719 5.203125 Z M 79.636719 5.203125 " fill-opacity="1" fill-rule="nonzero"/><path fill="#a6a6a6" d="M 74.195312 8.902344 C 73.996094 9.003906 73.820312 9.101562 73.621094 9.21875 C 73.523438 9.277344 73.484375 9.417969 73.542969 9.515625 C 73.582031 9.59375 73.660156 9.636719 73.738281 9.636719 C 73.761719 9.636719 73.820312 9.617188 73.839844 9.617188 C 74.035156 9.515625 74.234375 9.417969 74.433594 9.300781 C 74.53125 9.238281 74.570312 9.101562 74.511719 9.003906 C 74.433594 8.882812 74.3125 8.84375 74.195312 8.902344 Z M 74.195312 8.902344 " fill-opacity="1" fill-rule="nonzero"/><path fill="#a6a6a6" d="M 81.59375 3.78125 C 81.632812 3.820312 81.691406 3.859375 81.75 3.859375 C 81.8125 3.859375 81.851562 3.839844 81.890625 3.800781 C 82.046875 3.664062 82.207031 3.484375 82.363281 3.34375 C 82.445312 3.265625 82.445312 3.128906 82.363281 3.027344 C 82.285156 2.949219 82.148438 2.949219 82.046875 3.027344 C 81.890625 3.167969 81.730469 3.34375 81.574219 3.484375 C 81.515625 3.5625 81.515625 3.703125 81.59375 3.78125 Z M 81.59375 3.78125 " fill-opacity="1" fill-rule="nonzero"/><path fill="#a6a6a6" d="M 84.324219 0.617188 C 84.183594 0.773438 84.027344 0.953125 83.886719 1.109375 C 83.808594 1.191406 83.808594 1.347656 83.90625 1.425781 C 83.945312 1.464844 83.988281 1.488281 84.046875 1.488281 C 84.105469 1.488281 84.164062 1.464844 84.203125 1.40625 C 84.34375 1.25 84.5 1.070312 84.640625 0.914062 C 84.71875 0.832031 84.71875 0.675781 84.621094 0.597656 C 84.539062 0.515625 84.402344 0.515625 84.324219 0.617188 Z M 84.324219 0.617188 " fill-opacity="1" fill-rule="nonzero"/><path fill="#a6a6a6" d="M 52 13.394531 C 51.78125 13.375 51.566406 13.351562 51.347656 13.3125 C 51.230469 13.292969 51.109375 13.394531 51.089844 13.511719 C 51.070312 13.628906 51.167969 13.75 51.289062 13.769531 C 51.507812 13.789062 51.722656 13.828125 51.941406 13.847656 C 51.960938 13.847656 51.960938 13.847656 51.960938 13.847656 C 52.078125 13.847656 52.160156 13.769531 52.179688 13.648438 C 52.21875 13.511719 52.121094 13.414062 52 13.394531 Z M 52 13.394531 " fill-opacity="1" fill-rule="nonzero"/><path fill="#a6a6a6" d="M 48.757812 12.898438 C 48.539062 12.859375 48.320312 12.820312 48.105469 12.761719 C 47.984375 12.742188 47.867188 12.800781 47.847656 12.917969 C 47.828125 13.035156 47.886719 13.15625 48.003906 13.175781 C 48.222656 13.214844 48.441406 13.253906 48.65625 13.3125 C 48.675781 13.3125 48.675781 13.3125 48.695312 13.3125 C 48.796875 13.3125 48.894531 13.234375 48.914062 13.136719 C 48.953125 13.035156 48.875 12.917969 48.757812 12.898438 Z M 48.757812 12.898438 " fill-opacity="1" fill-rule="nonzero"/><path fill="#a6a6a6" d="M 65.054688 12.523438 C 64.859375 12.582031 64.621094 12.621094 64.402344 12.660156 C 64.285156 12.679688 64.207031 12.800781 64.246094 12.917969 C 64.265625 13.015625 64.363281 13.097656 64.460938 13.097656 C 64.484375 13.097656 64.484375 13.097656 64.503906 13.097656 C 64.71875 13.058594 64.9375 12.996094 65.15625 12.9375 C 65.273438 12.917969 65.351562 12.800781 65.3125 12.679688 C 65.292969 12.5625 65.175781 12.503906 65.054688 12.523438 Z M 65.054688 12.523438 " fill-opacity="1" fill-rule="nonzero"/><path fill="#a6a6a6" d="M 45.550781 12.105469 C 45.355469 12.046875 45.117188 11.96875 44.917969 11.910156 C 44.800781 11.871094 44.679688 11.929688 44.640625 12.046875 C 44.621094 12.167969 44.660156 12.285156 44.78125 12.324219 C 44.976562 12.402344 45.214844 12.464844 45.414062 12.523438 C 45.433594 12.523438 45.453125 12.542969 45.472656 12.542969 C 45.550781 12.542969 45.652344 12.484375 45.671875 12.382812 C 45.75 12.265625 45.671875 12.148438 45.550781 12.105469 Z M 45.550781 12.105469 " fill-opacity="1" fill-rule="nonzero"/><path fill="#a6a6a6" d="M 61.832031 13.175781 C 61.613281 13.195312 61.398438 13.234375 61.179688 13.273438 C 61.058594 13.292969 60.980469 13.414062 60.980469 13.53125 C 61 13.648438 61.082031 13.730469 61.199219 13.730469 C 61.21875 13.730469 61.21875 13.730469 61.21875 13.730469 C 61.4375 13.710938 61.652344 13.667969 61.871094 13.628906 C 61.988281 13.609375 62.070312 13.492188 62.070312 13.375 C 62.070312 13.234375 61.949219 13.15625 61.832031 13.175781 Z M 61.832031 13.175781 " fill-opacity="1" fill-rule="nonzero"/><path fill="#a6a6a6" d="M 55.285156 13.609375 C 55.066406 13.609375 54.847656 13.589844 54.632812 13.589844 C 54.511719 13.589844 54.414062 13.667969 54.394531 13.789062 C 54.394531 13.90625 54.472656 14.007812 54.59375 14.027344 C 54.808594 14.046875 55.027344 14.046875 55.246094 14.046875 C 55.363281 14.046875 55.460938 13.945312 55.460938 13.828125 C 55.5 13.710938 55.402344 13.609375 55.285156 13.609375 Z M 55.285156 13.609375 " fill-opacity="1" fill-rule="nonzero"/><path fill="#a6a6a6" d="M 58.566406 13.53125 C 58.351562 13.550781 58.132812 13.550781 57.914062 13.570312 C 57.796875 13.570312 57.699219 13.667969 57.71875 13.808594 C 57.71875 13.925781 57.816406 14.007812 57.933594 14.007812 C 57.933594 14.007812 57.933594 14.007812 57.953125 14.007812 C 58.171875 13.984375 58.390625 13.984375 58.609375 13.964844 C 58.726562 13.945312 58.824219 13.847656 58.804688 13.730469 C 58.785156 13.609375 58.707031 13.511719 58.566406 13.53125 Z M 58.566406 13.53125 " fill-opacity="1" fill-rule="nonzero"/><path fill="#a6a6a6" d="M 68.222656 11.59375 C 68.023438 11.671875 67.804688 11.730469 67.589844 11.789062 C 67.46875 11.832031 67.410156 11.949219 67.449219 12.066406 C 67.46875 12.148438 67.566406 12.207031 67.648438 12.207031 C 67.667969 12.207031 67.6875 12.207031 67.726562 12.1875 C 67.925781 12.105469 68.160156 12.046875 68.359375 11.988281 C 68.476562 11.949219 68.539062 11.832031 68.496094 11.710938 C 68.457031 11.613281 68.339844 11.554688 68.222656 11.59375 Z M 68.222656 11.59375 " fill-opacity="1" fill-rule="nonzero"/><path fill="#a6a6a6" d="M 67.113281 9.199219 L 67.25 9.617188 C 76.113281 6.628906 83.273438 0.378906 87.449219 -8.007812 L 87.054688 -8.203125 C 82.957031 0.0625 75.875 6.253906 67.113281 9.199219 Z M 67.113281 9.199219 " fill-opacity="1" fill-rule="nonzero"/><path fill="#a6a6a6" d="M 40.726562 7.398438 C 32.457031 3.285156 26.285156 -3.792969 23.335938 -12.535156 L 22.921875 -12.398438 C 25.910156 -3.535156 32.160156 3.621094 40.546875 7.796875 Z M 40.726562 7.398438 " fill-opacity="1" fill-rule="nonzero"/><path fill="#a6a6a6" d="M 67.113281 9.199219 C 58.351562 12.148438 48.972656 11.515625 40.707031 7.421875 L 40.507812 7.816406 C 48.875 11.96875 58.390625 12.601562 67.25 9.636719 Z M 67.113281 9.199219 " fill-opacity="1" fill-rule="nonzero"/><path fill="#a6a6a6" d="M 38.847656 3.050781 C 38.886719 3.070312 38.925781 3.070312 38.964844 3.070312 C 39.042969 3.070312 39.101562 3.050781 39.164062 2.96875 C 39.222656 2.871094 39.183594 2.734375 39.101562 2.652344 C 37.261719 1.464844 35.542969 0.0625 33.980469 -1.460938 L 33.664062 -1.144531 C 35.246094 0.4375 36.96875 1.824219 38.847656 3.050781 Z M 38.847656 3.050781 " fill-opacity="1" fill-rule="nonzero"/><path fill="#a6a6a6" d="M 54.910156 7.636719 C 52.097656 7.539062 49.308594 7.0625 46.660156 6.234375 C 46.539062 6.214844 46.421875 6.253906 46.382812 6.371094 C 46.363281 6.492188 46.402344 6.609375 46.519531 6.648438 C 49.210938 7.5 52.039062 7.972656 54.886719 8.09375 C 54.886719 8.09375 54.886719 8.09375 54.910156 8.09375 C 55.027344 8.09375 55.125 8.011719 55.125 7.894531 C 55.125 7.738281 55.027344 7.636719 54.910156 7.636719 Z M 54.910156 7.636719 " fill-opacity="1" fill-rule="nonzero"/><path fill="#a6a6a6" d="M 71.03125 3.839844 C 68.558594 5.183594 65.945312 6.195312 63.214844 6.828125 C 63.097656 6.847656 63.019531 6.964844 63.058594 7.082031 C 63.078125 7.183594 63.175781 7.261719 63.277344 7.261719 C 63.296875 7.261719 63.296875 7.261719 63.316406 7.261719 C 66.066406 6.609375 68.734375 5.582031 71.226562 4.234375 C 71.328125 4.175781 71.367188 4.039062 71.308594 3.9375 C 71.289062 3.820312 71.148438 3.78125 71.03125 3.839844 Z M 71.03125 3.839844 " fill-opacity="1" fill-rule="nonzero"/><path fill="#a6a6a6" d="M 56.09375 4.550781 L 56.09375 4.988281 C 63.96875 4.988281 71.109375 1.785156 76.273438 -3.378906 L 75.957031 -3.695312 C 70.851562 1.386719 63.828125 4.550781 56.09375 4.550781 Z M 56.09375 4.550781 " fill-opacity="1" fill-rule="nonzero"/><path fill="#a6a6a6" d="M 56.09375 4.550781 C 48.339844 4.550781 41.320312 1.40625 36.234375 -3.695312 L 35.917969 -3.378906 C 41.082031 1.785156 48.222656 4.988281 56.09375 4.988281 Z M 56.09375 4.550781 " fill-opacity="1" fill-rule="nonzero"/><path fill="#a6a6a6" d="M 51.742188 1.347656 C 51.78125 1.347656 51.824219 1.347656 51.863281 1.328125 C 51.941406 1.308594 51.980469 1.25 52 1.171875 C 52.019531 1.050781 51.941406 0.933594 51.824219 0.914062 C 49.863281 0.578125 47.964844 0.00390625 46.164062 -0.789062 L 45.988281 -0.371094 C 47.808594 0.417969 49.746094 0.992188 51.742188 1.347656 Z M 51.742188 1.347656 " fill-opacity="1" fill-rule="nonzero"/><path fill="#a6a6a6" d="M 63.808594 0.0625 C 61.890625 0.675781 59.894531 1.070312 57.875 1.210938 C 57.757812 1.230469 57.679688 1.328125 57.679688 1.445312 C 57.699219 1.566406 57.796875 1.664062 57.914062 1.644531 C 59.972656 1.507812 62.011719 1.109375 63.96875 0.476562 L 63.988281 0.476562 C 64.085938 0.4375 64.144531 0.320312 64.125 0.199219 C 64.046875 0.101562 63.929688 0.0429688 63.808594 0.0625 Z M 63.808594 0.0625 " fill-opacity="1" fill-rule="nonzero"/><path fill="#a6a6a6" d="M 89.484375 9.972656 C 89.464844 9.972656 89.40625 9.953125 89.386719 9.933594 L 75.875 -3.003906 C 75.816406 -3.0625 75.816406 -3.140625 75.875 -3.199219 C 75.9375 -3.261719 76.015625 -3.261719 76.074219 -3.199219 L 89.585938 9.734375 C 89.644531 9.792969 89.644531 9.871094 89.585938 9.933594 C 89.566406 9.953125 89.527344 9.972656 89.484375 9.972656 Z M 89.484375 9.972656 " fill-opacity="1" fill-rule="nonzero"/><g clip-path="url(#8cd3065b3f)"><path fill="#a6a6a6" d="M 56.015625 -0.390625 L 56.15625 -0.390625 L 56.15625 23.65625 L 56.015625 23.65625 Z M 56.015625 -0.390625 " fill-opacity="1" fill-rule="nonzero"/></g><g clip-path="url(#0fece03d20)"><path fill="#737373" d="M 256.292969 106.191406 C 247.605469 97.503906 236.050781 92.726562 223.765625 92.726562 C 211.476562 92.726562 199.925781 97.503906 191.238281 106.191406 C 182.550781 114.894531 177.769531 126.449219 177.769531 138.71875 C 177.769531 150.992188 182.550781 162.558594 191.238281 171.246094 L 191.558594 170.925781 C 182.964844 162.328125 178.214844 150.886719 178.214844 138.71875 C 178.214844 126.554688 182.949219 115.125 191.558594 106.515625 C 200.171875 97.917969 211.601562 93.183594 223.765625 93.183594 C 235.929688 93.183594 247.359375 97.917969 255.96875 106.53125 C 264.566406 115.125 269.316406 126.570312 269.316406 138.734375 C 269.316406 150.898438 264.582031 162.328125 255.96875 170.941406 C 247.359375 179.535156 235.929688 184.269531 223.765625 184.269531 C 211.601562 184.269531 200.171875 179.535156 191.558594 170.925781 L 191.238281 171.246094 C 199.925781 179.933594 211.476562 184.714844 223.765625 184.714844 C 236.050781 184.714844 247.605469 179.933594 256.292969 171.246094 C 264.980469 162.558594 269.757812 151.007812 269.757812 138.71875 C 269.757812 126.449219 264.980469 114.894531 256.292969 106.191406 Z M 256.292969 106.191406 " fill-opacity="1" fill-rule="nonzero"/></g><g clip-path="url(#9c42039a93)"><path fill="#737373" d="M 193.550781 168.933594 C 201.625 177.007812 212.351562 181.449219 223.765625 181.449219 C 235.179688 181.449219 245.902344 177.007812 253.976562 168.933594 C 262.050781 160.859375 266.496094 150.132812 266.496094 138.71875 L 266.035156 138.71875 C 266.035156 150.011719 261.640625 160.628906 253.65625 168.613281 C 245.675781 176.59375 235.058594 180.992188 223.765625 180.992188 C 212.472656 180.992188 201.855469 176.59375 193.875 168.613281 C 185.890625 160.628906 181.492188 150.011719 181.492188 138.71875 C 181.492188 127.429688 185.890625 116.808594 193.875 108.828125 C 201.855469 100.859375 212.472656 96.464844 223.765625 96.464844 C 235.058594 96.464844 245.675781 100.859375 253.65625 108.84375 C 261.640625 116.824219 266.035156 127.445312 266.035156 138.734375 L 266.496094 138.734375 C 266.496094 127.320312 262.050781 116.597656 253.976562 108.523438 C 245.902344 100.449219 235.179688 96.003906 223.765625 96.003906 C 212.351562 96.003906 201.625 100.449219 193.550781 108.523438 C 185.492188 116.582031 181.035156 127.320312 181.035156 138.71875 C 181.035156 150.132812 185.492188 160.875 193.550781 168.933594 Z M 193.550781 168.933594 " fill-opacity="1" fill-rule="nonzero"/></g><g clip-path="url(#073a9d7683)"><path fill="#737373" d="M 195.207031 112.289062 C 195.265625 112.289062 195.328125 112.261719 195.375 112.214844 C 195.527344 112.046875 195.695312 111.878906 195.851562 111.707031 C 195.941406 111.617188 195.941406 111.480469 195.851562 111.386719 C 195.757812 111.292969 195.621094 111.292969 195.527344 111.386719 C 195.359375 111.554688 195.207031 111.722656 195.054688 111.890625 C 194.960938 111.984375 194.976562 112.136719 195.066406 112.214844 C 195.097656 112.277344 195.144531 112.289062 195.207031 112.289062 Z M 195.207031 112.289062 " fill-opacity="1" fill-rule="nonzero"/></g><path fill="#737373" d="M 251.21875 111.28125 C 251.265625 111.324219 251.3125 111.371094 251.359375 111.417969 C 251.40625 111.464844 251.464844 111.480469 251.527344 111.480469 C 251.589844 111.480469 251.648438 111.464844 251.695312 111.417969 C 251.789062 111.324219 251.789062 111.1875 251.695312 111.097656 C 251.648438 111.050781 251.605469 111.003906 251.558594 110.957031 C 251.433594 110.835938 251.328125 110.726562 251.207031 110.605469 C 251.113281 110.511719 250.976562 110.511719 250.882812 110.605469 C 250.792969 110.699219 250.792969 110.835938 250.882812 110.925781 C 250.992188 111.035156 251.097656 111.15625 251.21875 111.28125 Z M 251.21875 111.28125 " fill-opacity="1" fill-rule="nonzero"/><path fill="#737373" d="M 222.832031 99.910156 C 223.058594 99.910156 223.289062 99.894531 223.519531 99.894531 C 223.640625 99.894531 223.75 99.789062 223.75 99.667969 C 223.75 99.542969 223.640625 99.4375 223.519531 99.4375 C 223.289062 99.4375 223.058594 99.4375 222.832031 99.453125 C 222.707031 99.453125 222.601562 99.558594 222.601562 99.679688 C 222.601562 99.804688 222.707031 99.910156 222.832031 99.910156 Z M 222.832031 99.910156 " fill-opacity="1" fill-rule="nonzero"/><path fill="#737373" d="M 245.550781 106.574219 C 245.734375 106.699219 245.933594 106.835938 246.117188 106.972656 C 246.164062 107.003906 246.210938 107.019531 246.257812 107.019531 C 246.332031 107.019531 246.394531 106.988281 246.441406 106.929688 C 246.515625 106.820312 246.484375 106.683594 246.378906 106.605469 C 246.195312 106.46875 245.996094 106.347656 245.8125 106.207031 C 245.703125 106.132812 245.566406 106.164062 245.492188 106.269531 C 245.414062 106.363281 245.445312 106.515625 245.550781 106.574219 Z M 245.550781 106.574219 " fill-opacity="1" fill-rule="nonzero"/><path fill="#737373" d="M 248.832031 109.074219 C 248.875 109.105469 248.921875 109.132812 248.984375 109.132812 C 249.046875 109.132812 249.105469 109.105469 249.152344 109.058594 C 249.230469 108.964844 249.230469 108.8125 249.121094 108.734375 C 248.9375 108.582031 248.769531 108.445312 248.585938 108.292969 C 248.492188 108.214844 248.339844 108.230469 248.261719 108.324219 C 248.1875 108.414062 248.203125 108.566406 248.292969 108.644531 C 248.476562 108.78125 248.660156 108.933594 248.832031 109.074219 Z M 248.832031 109.074219 " fill-opacity="1" fill-rule="nonzero"/><path fill="#737373" d="M 242.625 104.785156 C 242.824219 104.890625 243.023438 105.011719 243.222656 105.121094 C 243.253906 105.136719 243.300781 105.152344 243.34375 105.152344 C 243.421875 105.152344 243.5 105.105469 243.542969 105.042969 C 243.605469 104.9375 243.574219 104.796875 243.46875 104.722656 C 243.269531 104.597656 243.070312 104.492188 242.855469 104.386719 C 242.746094 104.324219 242.609375 104.371094 242.546875 104.476562 C 242.472656 104.585938 242.519531 104.722656 242.625 104.785156 Z M 242.625 104.785156 " fill-opacity="1" fill-rule="nonzero"/><path fill="#737373" d="M 236.34375 101.980469 C 236.558594 102.054688 236.773438 102.132812 236.988281 102.210938 C 237.019531 102.226562 237.03125 102.226562 237.0625 102.226562 C 237.15625 102.226562 237.246094 102.164062 237.277344 102.070312 C 237.324219 101.949219 237.261719 101.828125 237.140625 101.78125 C 236.925781 101.703125 236.695312 101.628906 236.480469 101.550781 C 236.359375 101.503906 236.238281 101.566406 236.191406 101.6875 C 236.160156 101.8125 236.222656 101.933594 236.34375 101.980469 Z M 236.34375 101.980469 " fill-opacity="1" fill-rule="nonzero"/><path fill="#737373" d="M 203.1875 105.734375 C 203.234375 105.734375 203.265625 105.71875 203.3125 105.703125 C 203.511719 105.582031 203.695312 105.457031 203.894531 105.351562 C 204 105.289062 204.03125 105.152344 203.96875 105.027344 C 203.910156 104.921875 203.769531 104.890625 203.648438 104.953125 C 203.449219 105.074219 203.25 105.195312 203.050781 105.320312 C 202.945312 105.382812 202.914062 105.535156 202.972656 105.640625 C 203.050781 105.703125 203.113281 105.734375 203.1875 105.734375 Z M 203.1875 105.734375 " fill-opacity="1" fill-rule="nonzero"/><path fill="#737373" d="M 209.347656 102.636719 C 209.378906 102.636719 209.410156 102.636719 209.441406 102.625 C 209.652344 102.53125 209.867188 102.453125 210.082031 102.378906 C 210.207031 102.332031 210.265625 102.195312 210.222656 102.085938 C 210.175781 101.964844 210.039062 101.902344 209.929688 101.949219 C 209.714844 102.027344 209.5 102.117188 209.285156 102.195312 C 209.164062 102.238281 209.117188 102.378906 209.164062 102.484375 C 209.179688 102.578125 209.253906 102.636719 209.347656 102.636719 Z M 209.347656 102.636719 " fill-opacity="1" fill-rule="nonzero"/><path fill="#737373" d="M 206.207031 104.046875 C 206.238281 104.046875 206.285156 104.03125 206.3125 104.015625 C 206.511719 103.910156 206.726562 103.816406 206.925781 103.710938 C 207.035156 103.648438 207.09375 103.511719 207.035156 103.40625 C 206.972656 103.296875 206.835938 103.234375 206.726562 103.296875 C 206.511719 103.40625 206.3125 103.496094 206.101562 103.605469 C 205.992188 103.664062 205.945312 103.804688 205.992188 103.910156 C 206.039062 104.003906 206.113281 104.046875 206.207031 104.046875 Z M 206.207031 104.046875 " fill-opacity="1" fill-rule="nonzero"/><path fill="#737373" d="M 197.671875 109.886719 C 197.734375 109.886719 197.78125 109.871094 197.828125 109.824219 C 197.996094 109.671875 198.164062 109.519531 198.347656 109.363281 C 198.4375 109.289062 198.453125 109.132812 198.378906 109.042969 C 198.300781 108.949219 198.148438 108.933594 198.054688 109.011719 C 197.886719 109.164062 197.703125 109.320312 197.535156 109.472656 C 197.441406 109.5625 197.429688 109.703125 197.519531 109.792969 C 197.550781 109.855469 197.613281 109.886719 197.671875 109.886719 Z M 197.671875 109.886719 " fill-opacity="1" fill-rule="nonzero"/><path fill="#737373" d="M 200.339844 107.695312 C 200.386719 107.695312 200.429688 107.679688 200.476562 107.648438 C 200.660156 107.511719 200.84375 107.371094 201.027344 107.234375 C 201.136719 107.15625 201.152344 107.019531 201.074219 106.914062 C 200.996094 106.804688 200.859375 106.789062 200.753906 106.867188 C 200.570312 107.003906 200.386719 107.144531 200.1875 107.28125 C 200.078125 107.355469 200.0625 107.496094 200.140625 107.601562 C 200.199219 107.648438 200.277344 107.695312 200.339844 107.695312 Z M 200.339844 107.695312 " fill-opacity="1" fill-rule="nonzero"/><path fill="#737373" d="M 229.679688 100.339844 C 229.910156 100.371094 230.136719 100.417969 230.351562 100.449219 C 230.367188 100.449219 230.382812 100.449219 230.398438 100.449219 C 230.507812 100.449219 230.613281 100.371094 230.628906 100.261719 C 230.644531 100.140625 230.566406 100.019531 230.445312 100.003906 C 230.214844 99.957031 229.984375 99.925781 229.753906 99.894531 C 229.632812 99.878906 229.511719 99.957031 229.496094 100.09375 C 229.480469 100.203125 229.554688 100.324219 229.679688 100.339844 Z M 229.679688 100.339844 " fill-opacity="1" fill-rule="nonzero"/><path fill="#737373" d="M 233.050781 101.015625 C 233.28125 101.074219 233.492188 101.121094 233.707031 101.183594 C 233.722656 101.183594 233.753906 101.183594 233.769531 101.183594 C 233.875 101.183594 233.96875 101.121094 233.984375 101.015625 C 234.015625 100.890625 233.9375 100.769531 233.816406 100.738281 C 233.585938 100.675781 233.371094 100.617188 233.140625 100.570312 C 233.019531 100.539062 232.894531 100.617188 232.867188 100.738281 C 232.851562 100.859375 232.925781 100.984375 233.050781 101.015625 Z M 233.050781 101.015625 " fill-opacity="1" fill-rule="nonzero"/><path fill="#737373" d="M 226.261719 99.972656 C 226.492188 99.988281 226.722656 100.003906 226.953125 100.019531 C 226.953125 100.019531 226.96875 100.019531 226.96875 100.019531 C 227.089844 100.019531 227.179688 99.925781 227.195312 99.804688 C 227.210938 99.679688 227.121094 99.574219 226.980469 99.558594 C 226.753906 99.542969 226.523438 99.527344 226.292969 99.511719 C 226.171875 99.511719 226.0625 99.605469 226.046875 99.726562 C 226.046875 99.867188 226.140625 99.972656 226.261719 99.972656 Z M 226.261719 99.972656 " fill-opacity="1" fill-rule="nonzero"/><path fill="#737373" d="M 215.964844 100.675781 C 215.980469 100.675781 215.996094 100.675781 216.011719 100.675781 C 216.242188 100.632812 216.457031 100.585938 216.6875 100.539062 C 216.808594 100.507812 216.902344 100.402344 216.871094 100.277344 C 216.855469 100.15625 216.734375 100.078125 216.609375 100.09375 C 216.378906 100.140625 216.148438 100.1875 215.921875 100.234375 C 215.796875 100.261719 215.722656 100.386719 215.738281 100.507812 C 215.765625 100.601562 215.859375 100.675781 215.964844 100.675781 Z M 215.964844 100.675781 " fill-opacity="1" fill-rule="nonzero"/><path fill="#737373" d="M 219.382812 100.140625 C 219.398438 100.140625 219.398438 100.140625 219.414062 100.140625 C 219.644531 100.109375 219.875 100.09375 220.101562 100.066406 C 220.226562 100.050781 220.316406 99.941406 220.316406 99.820312 C 220.300781 99.695312 220.195312 99.605469 220.074219 99.605469 C 219.84375 99.621094 219.613281 99.652344 219.382812 99.679688 C 219.261719 99.695312 219.167969 99.804688 219.183594 99.941406 C 219.167969 100.050781 219.261719 100.140625 219.382812 100.140625 Z M 219.382812 100.140625 " fill-opacity="1" fill-rule="nonzero"/><path fill="#737373" d="M 212.609375 101.503906 C 212.625 101.503906 212.65625 101.503906 212.671875 101.488281 C 212.886719 101.429688 213.117188 101.367188 213.332031 101.304688 C 213.453125 101.273438 213.53125 101.152344 213.484375 101.03125 C 213.453125 100.90625 213.316406 100.832031 213.207031 100.875 C 212.980469 100.9375 212.765625 101 212.535156 101.074219 C 212.410156 101.105469 212.351562 101.246094 212.382812 101.367188 C 212.425781 101.445312 212.519531 101.503906 212.609375 101.503906 Z M 212.609375 101.503906 " fill-opacity="1" fill-rule="nonzero"/><path fill="#737373" d="M 239.546875 103.234375 C 239.761719 103.328125 239.960938 103.417969 240.175781 103.527344 C 240.203125 103.542969 240.234375 103.542969 240.265625 103.542969 C 240.359375 103.542969 240.433594 103.496094 240.480469 103.40625 C 240.542969 103.28125 240.480469 103.160156 240.375 103.097656 C 240.160156 103.007812 239.945312 102.898438 239.746094 102.808594 C 239.621094 102.761719 239.5 102.808594 239.4375 102.929688 C 239.378906 103.050781 239.4375 103.191406 239.546875 103.234375 Z M 239.546875 103.234375 " fill-opacity="1" fill-rule="nonzero"/><g clip-path="url(#44d57c1845)"><path fill="#737373" d="M 259.890625 138.71875 C 259.890625 148.371094 256.136719 157.441406 249.304688 164.261719 C 242.488281 171.09375 233.417969 174.847656 223.765625 174.847656 C 214.113281 174.847656 205.042969 171.09375 198.222656 164.261719 C 191.40625 157.441406 187.636719 148.371094 187.636719 138.71875 C 187.636719 129.066406 191.390625 119.996094 198.222656 113.179688 C 205.042969 106.363281 214.113281 102.609375 223.765625 102.609375 C 233.417969 102.609375 242.488281 106.363281 249.304688 113.195312 C 256.125 120.011719 259.890625 129.082031 259.890625 138.71875 L 260.351562 138.71875 C 260.351562 128.945312 256.550781 119.765625 249.640625 112.859375 C 242.71875 105.949219 233.539062 102.148438 223.765625 102.148438 C 213.988281 102.148438 204.8125 105.949219 197.902344 112.859375 C 190.992188 119.765625 187.191406 128.960938 187.191406 138.71875 C 187.191406 148.496094 190.992188 157.671875 197.902344 164.582031 C 204.8125 171.492188 214.003906 175.292969 223.765625 175.292969 C 233.539062 175.292969 242.71875 171.492188 249.628906 164.582031 C 256.535156 157.671875 260.335938 148.480469 260.335938 138.71875 Z M 259.890625 138.71875 " fill-opacity="1" fill-rule="nonzero"/></g><path fill="#737373" d="M 227.304688 106.132812 C 230.214844 106.453125 233.066406 107.15625 235.792969 108.230469 C 235.824219 108.246094 235.851562 108.246094 235.882812 108.246094 C 235.976562 108.246094 236.066406 108.183594 236.097656 108.109375 C 236.144531 107.984375 236.082031 107.863281 235.976562 107.816406 C 233.21875 106.730469 230.324219 106.007812 227.378906 105.6875 C 227.257812 105.671875 227.136719 105.765625 227.121094 105.886719 C 227.105469 106.007812 227.167969 106.117188 227.304688 106.132812 Z M 227.304688 106.132812 " fill-opacity="1" fill-rule="nonzero"/><g clip-path="url(#545deb4e96)"><path fill="#737373" d="M 243.390625 112.503906 C 244.632812 113.441406 245.8125 114.464844 246.898438 115.570312 C 247.863281 116.535156 248.769531 117.5625 249.597656 118.648438 C 249.640625 118.710938 249.703125 118.742188 249.78125 118.742188 C 249.828125 118.742188 249.871094 118.726562 249.917969 118.695312 C 250.027344 118.617188 250.039062 118.480469 249.964844 118.375 C 249.121094 117.269531 248.203125 116.242188 247.222656 115.261719 C 246.101562 114.144531 244.921875 113.101562 243.667969 112.152344 C 243.558594 112.078125 243.421875 112.089844 243.34375 112.199219 C 243.285156 112.289062 243.300781 112.429688 243.390625 112.503906 Z M 243.390625 112.503906 " fill-opacity="1" fill-rule="nonzero"/></g><path fill="#737373" d="M 210.097656 108.875 C 210.128906 108.875 210.160156 108.875 210.191406 108.859375 C 212.855469 107.648438 215.660156 106.804688 218.554688 106.347656 C 218.679688 106.332031 218.769531 106.207031 218.738281 106.085938 C 218.722656 105.964844 218.601562 105.871094 218.480469 105.902344 C 215.554688 106.363281 212.6875 107.21875 209.992188 108.445312 C 209.867188 108.492188 209.824219 108.628906 209.882812 108.75 C 209.929688 108.828125 210.023438 108.875 210.097656 108.875 Z M 210.097656 108.875 " fill-opacity="1" fill-rule="nonzero"/><g clip-path="url(#0943ae928a)"><path fill="#737373" d="M 223.765625 108.90625 C 215.539062 108.90625 208.089844 112.246094 202.683594 117.652344 C 197.289062 123.046875 193.933594 130.507812 193.933594 138.734375 C 193.933594 146.960938 197.273438 154.410156 202.683594 159.816406 C 208.074219 165.210938 215.539062 168.566406 223.765625 168.566406 C 231.992188 168.566406 239.4375 165.226562 244.847656 159.816406 C 250.238281 154.425781 253.59375 146.960938 253.59375 138.734375 C 253.59375 130.507812 250.238281 123.046875 244.847656 117.652344 C 239.453125 112.261719 231.992188 108.90625 223.765625 108.90625 Z M 253.121094 138.71875 C 253.121094 146.808594 249.828125 154.148438 244.511719 159.464844 C 239.195312 164.78125 231.855469 168.074219 223.765625 168.074219 C 215.675781 168.074219 208.335938 164.796875 203.019531 159.480469 C 197.703125 154.164062 194.410156 146.824219 194.410156 138.734375 C 194.410156 130.644531 197.703125 123.308594 203.019531 117.992188 C 208.335938 112.671875 215.675781 109.378906 223.765625 109.378906 C 231.855469 109.378906 239.195312 112.671875 244.511719 117.992188 C 249.828125 123.308594 253.121094 130.628906 253.121094 138.71875 Z M 253.121094 138.71875 " fill-opacity="1" fill-rule="nonzero"/></g><g clip-path="url(#0621fcbd6e)"><path fill="#737373" d="M 226.03125 112.335938 C 225.28125 112.277344 224.515625 112.246094 223.765625 112.246094 C 222.371094 112.246094 220.976562 112.351562 219.613281 112.582031 C 219.492188 112.597656 219.398438 112.71875 219.429688 112.84375 C 219.445312 112.949219 219.550781 113.042969 219.660156 113.042969 C 219.675781 113.042969 219.691406 113.042969 219.691406 113.042969 C 221.039062 112.828125 222.402344 112.71875 223.78125 112.71875 C 224.53125 112.71875 225.265625 112.75 226.015625 112.8125 C 226.140625 112.828125 226.261719 112.734375 226.261719 112.597656 C 226.261719 112.460938 226.171875 112.351562 226.03125 112.335938 Z M 226.03125 112.335938 " fill-opacity="1" fill-rule="nonzero"/></g><g clip-path="url(#492591d6ae)"><g clip-path="url(#dda5370df2)"><path fill="#a6a6a6" d="M 26.59375 127.042969 L 74.882812 99.988281 L 75.25 100.640625 L 26.960938 127.695312 Z M 26.59375 127.042969 " fill-opacity="1" fill-rule="nonzero"/></g></g><g clip-path="url(#f45ba4b13b)"><path fill="#737373" d="M 76.207031 96.375 C 75.738281 96.375 75.285156 96.464844 74.851562 96.644531 C 74.417969 96.824219 74.035156 97.082031 73.703125 97.414062 C 73.371094 97.746094 73.117188 98.128906 72.9375 98.5625 C 72.757812 98.996094 72.667969 99.449219 72.667969 99.917969 C 72.667969 100.386719 72.757812 100.839844 72.9375 101.273438 C 73.117188 101.707031 73.371094 102.089844 73.703125 102.421875 C 74.035156 102.753906 74.417969 103.007812 74.851562 103.1875 C 75.285156 103.367188 75.738281 103.457031 76.207031 103.457031 C 76.675781 103.457031 77.128906 103.367188 77.5625 103.1875 C 77.996094 103.007812 78.378906 102.753906 78.710938 102.421875 C 79.042969 102.089844 79.296875 101.707031 79.476562 101.273438 C 79.65625 100.839844 79.746094 100.386719 79.746094 99.917969 C 79.746094 99.449219 79.65625 98.996094 79.476562 98.5625 C 79.296875 98.128906 79.042969 97.746094 78.710938 97.414062 C 78.378906 97.082031 77.996094 96.824219 77.5625 96.644531 C 77.128906 96.464844 76.675781 96.375 76.207031 96.375 Z M 76.207031 96.375 " fill-opacity="1" fill-rule="nonzero"/></g><g clip-path="url(#8c54add5ad)"><g clip-path="url(#f25ef2b753)"><path fill="#d9d9d9" d="M 215.867188 13.976562 L 260.894531 -11.25 L 261.257812 -10.597656 L 216.230469 14.628906 Z M 215.867188 13.976562 " fill-opacity="1" fill-rule="nonzero"/></g></g><g clip-path="url(#9f8110371c)"><path fill="#a6a6a6" d="M 215.859375 17.808594 C 216.296875 17.808594 216.714844 17.726562 217.117188 17.558594 C 217.519531 17.394531 217.875 17.15625 218.183594 16.847656 C 218.492188 16.539062 218.730469 16.183594 218.894531 15.78125 C 219.0625 15.378906 219.144531 14.960938 219.144531 14.523438 C 219.144531 14.089844 219.0625 13.667969 218.894531 13.265625 C 218.730469 12.863281 218.492188 12.507812 218.183594 12.203125 C 217.875 11.894531 217.519531 11.65625 217.117188 11.488281 C 216.714844 11.324219 216.296875 11.238281 215.859375 11.238281 C 215.425781 11.238281 215.007812 11.324219 214.605469 11.488281 C 214.203125 11.65625 213.847656 11.894531 213.539062 12.203125 C 213.230469 12.507812 212.992188 12.863281 212.824219 13.265625 C 212.660156 13.667969 212.574219 14.089844 212.574219 14.523438 C 212.574219 14.960938 212.660156 15.378906 212.824219 15.78125 C 212.992188 16.183594 213.230469 16.539062 213.539062 16.847656 C 213.847656 17.15625 214.203125 17.394531 214.605469 17.558594 C 215.007812 17.726562 215.425781 17.808594 215.859375 17.808594 Z M 215.859375 17.808594 " fill-opacity="1" fill-rule="nonzero"/></g><g clip-path="url(#d66a79caf4)"><path fill="#52718d" d="M -7.058594 54.402344 C -5.738281 55.875 -2.511719 54.703125 -1.265625 53.519531 C 0.90625 51.738281 1.019531 48.847656 0.0898438 46.613281 C -1.496094 42.71875 -8.421875 41.890625 -10.226562 46.613281 C -11.152344 48.773438 -10.058594 52.910156 -7.757812 53.894531 " fill-opacity="1" fill-rule="nonzero"/></g><g clip-path="url(#a54399031b)"><path fill="#949594" d="M -3.160156 58.273438 C -4.820312 56.992188 -5.519531 54.628906 -5.417969 52.585938 C -5.328125 50.777344 -4.257812 49.136719 -2.625 48.378906 C -1.167969 47.699219 0.5625 47.789062 2.03125 48.367188 C 3.707031 49.027344 4.824219 50.359375 5.230469 52.117188 C 5.480469 53.207031 5.433594 54.367188 5.078125 55.425781 C 4.691406 56.582031 3.859375 57.410156 2.914062 58.121094 C 1.929688 58.867188 0.734375 59.355469 -0.503906 59.34375 C -1.128906 59.339844 -2.003906 59.183594 -2.503906 58.789062 C -2.722656 58.617188 -2.941406 58.445312 -3.160156 58.273438 C -3.257812 58.195312 -3.242188 58.464844 -3.167969 58.523438 L -2.542969 59.015625 C -2.113281 59.351562 -1.449219 59.496094 -0.929688 59.578125 C 0.167969 59.742188 1.316406 59.410156 2.265625 58.863281 C 4.074219 57.816406 5.34375 56.25 5.527344 54.109375 C 5.671875 52.460938 5.1875 50.660156 4.039062 49.449219 C 2.996094 48.34375 1.472656 47.746094 -0.0195312 47.644531 C -2.425781 47.484375 -4.625 48.855469 -5.363281 51.207031 C -5.757812 52.457031 -5.617188 53.875 -5.28125 55.121094 C -4.929688 56.425781 -4.246094 57.695312 -3.167969 58.523438 C -3.070312 58.601562 -3.085938 58.332031 -3.160156 58.273438 " fill-opacity="1" fill-rule="nonzero"/></g><g clip-path="url(#dc97c1c7b7)"><path fill="#949594" d="M 1.210938 48.714844 C 3.179688 49.433594 4.613281 51.691406 4.761719 53.753906 C 4.894531 55.539062 3.789062 57.125 2.238281 57.867188 C 0.828125 58.539062 -0.914062 58.550781 -2.324219 57.878906 C -4.316406 56.925781 -5.332031 54.304688 -4.765625 52.210938 C -4.410156 50.910156 -3.347656 49.632812 -2.21875 48.933594 C -1.574219 48.535156 -0.816406 48.355469 -0.0625 48.382812 C 0.402344 48.398438 0.785156 48.554688 1.210938 48.714844 C 1.308594 48.75 1.273438 48.480469 1.179688 48.445312 C 0.433594 48.167969 -0.238281 48.035156 -1.046875 48.179688 C -2.003906 48.355469 -2.839844 48.953125 -3.492188 49.660156 C -4.148438 50.367188 -4.699219 51.253906 -4.953125 52.191406 C -5.222656 53.1875 -5.085938 54.253906 -4.753906 55.214844 C -4.199219 56.816406 -3.023438 58.042969 -1.390625 58.472656 C 0.0390625 58.851562 1.632812 58.59375 2.886719 57.816406 C 4.425781 56.863281 5.152344 55.023438 4.855469 53.25 C 4.519531 51.257812 3.105469 49.148438 1.179688 48.445312 C 1.085938 48.410156 1.117188 48.679688 1.210938 48.714844 " fill-opacity="1" fill-rule="nonzero"/></g><g clip-path="url(#3900283fcf)"><path fill="#55929a" d="M 27.253906 55.09375 C 26.707031 53.1875 23.300781 52.804688 21.664062 53.3125 C 18.941406 53.949219 17.578125 56.496094 17.441406 58.914062 C 17.167969 63.117188 23.027344 66.933594 26.707031 63.5 C 28.480469 61.96875 29.296875 57.769531 27.664062 55.859375 " fill-opacity="1" fill-rule="nonzero"/></g><path fill="#55929a" d="M 11.03125 54.914062 C 10.902344 54.46875 10.113281 54.382812 9.734375 54.5 C 9.101562 54.648438 8.785156 55.238281 8.753906 55.800781 C 8.691406 56.773438 10.050781 57.660156 10.902344 56.863281 C 11.3125 56.507812 11.503906 55.535156 11.125 55.089844 " fill-opacity="1" fill-rule="nonzero"/><path fill="#55929a" d="M 26.738281 41.121094 C 26.609375 40.679688 25.820312 40.589844 25.441406 40.707031 C 24.808594 40.855469 24.492188 41.445312 24.460938 42.007812 C 24.398438 42.980469 25.757812 43.867188 26.609375 43.070312 C 27.023438 42.714844 27.210938 41.742188 26.832031 41.296875 " fill-opacity="1" fill-rule="nonzero"/><path fill="#55929a" d="M 36.75 61.59375 C 36.625 61.152344 35.832031 61.0625 35.453125 61.179688 C 34.820312 61.328125 34.503906 61.917969 34.472656 62.480469 C 34.410156 63.457031 35.769531 64.339844 36.625 63.542969 C 37.035156 63.1875 37.222656 62.214844 36.84375 61.773438 " fill-opacity="1" fill-rule="nonzero"/><path fill="#52718d" d="M 37.96875 54.402344 C 39.289062 55.875 42.515625 54.703125 43.765625 53.519531 C 45.933594 51.738281 46.050781 48.847656 45.117188 46.613281 C 43.535156 42.71875 36.609375 41.890625 34.800781 46.613281 C 33.875 48.773438 34.96875 52.910156 37.269531 53.894531 " fill-opacity="1" fill-rule="nonzero"/><g clip-path="url(#c04bf06f07)"><path fill="#949594" d="M 15.824219 46.328125 C 17.714844 45.777344 18.089844 42.335938 17.585938 40.683594 C 16.957031 37.929688 14.4375 36.554688 12.039062 36.417969 C 7.878906 36.140625 4.097656 42.058594 7.503906 45.777344 C 9.015625 47.566406 13.175781 48.390625 15.066406 46.738281 " fill-opacity="1" fill-rule="nonzero"/></g><path fill="#949594" d="M 23.96875 58.597656 C 22.304688 57.316406 21.605469 54.953125 21.707031 52.910156 C 21.796875 51.101562 22.867188 49.460938 24.5 48.699219 C 25.957031 48.023438 27.6875 48.113281 29.160156 48.691406 C 30.832031 49.351562 31.953125 50.683594 32.355469 52.441406 C 32.609375 53.53125 32.558594 54.691406 32.203125 55.75 C 31.816406 56.90625 30.980469 57.734375 30.039062 58.445312 C 29.054688 59.191406 27.859375 59.679688 26.621094 59.667969 C 25.996094 59.664062 25.125 59.507812 24.621094 59.113281 C 24.402344 58.941406 24.183594 58.769531 23.96875 58.597656 C 23.867188 58.519531 23.882812 58.789062 23.953125 58.847656 C 24.164062 59.011719 24.375 59.175781 24.585938 59.339844 C 25.011719 59.675781 25.675781 59.820312 26.195312 59.898438 C 27.292969 60.066406 28.441406 59.734375 29.390625 59.1875 C 31.199219 58.140625 32.46875 56.574219 32.65625 54.433594 C 32.796875 52.78125 32.308594 50.980469 31.164062 49.773438 C 30.117188 48.664062 28.597656 48.070312 27.105469 47.96875 C 24.699219 47.808594 22.5 49.175781 21.761719 51.53125 C 21.371094 52.78125 21.507812 54.199219 21.84375 55.441406 C 22.195312 56.746094 22.878906 58.015625 23.953125 58.847656 C 24.054688 58.925781 24.039062 58.652344 23.96875 58.597656 " fill-opacity="1" fill-rule="nonzero"/><path fill="#949594" d="M 28.335938 49.035156 C 30.304688 49.757812 31.738281 52.015625 31.890625 54.078125 C 32.019531 55.863281 30.917969 57.449219 29.363281 58.191406 C 27.953125 58.863281 26.210938 58.875 24.800781 58.203125 C 22.808594 57.25 21.792969 54.628906 22.359375 52.535156 C 22.714844 51.234375 23.777344 49.957031 24.90625 49.257812 C 25.554688 48.855469 26.308594 48.679688 27.0625 48.707031 C 27.527344 48.722656 27.90625 48.878906 28.335938 49.035156 C 28.433594 49.074219 28.398438 48.804688 28.304688 48.769531 C 27.558594 48.492188 26.886719 48.359375 26.082031 48.503906 C 25.121094 48.679688 24.285156 49.277344 23.632812 49.984375 C 22.976562 50.691406 22.425781 51.578125 22.171875 52.511719 C 21.902344 53.511719 22.039062 54.578125 22.371094 55.539062 C 22.925781 57.140625 24.101562 58.367188 25.734375 58.796875 C 27.164062 59.175781 28.757812 58.917969 30.011719 58.140625 C 31.550781 57.1875 32.277344 55.347656 31.980469 53.574219 C 31.644531 51.582031 30.230469 49.472656 28.304688 48.769531 C 28.210938 48.734375 28.242188 49.003906 28.335938 49.035156 " fill-opacity="1" fill-rule="nonzero"/><g clip-path="url(#058b627963)"><path fill="#949594" d="M 41.871094 58.273438 C 40.210938 56.992188 39.507812 54.628906 39.609375 52.585938 C 39.699219 50.777344 40.773438 49.136719 42.402344 48.378906 C 43.859375 47.699219 45.589844 47.789062 47.0625 48.367188 C 48.734375 49.027344 49.855469 50.359375 50.261719 52.117188 C 50.511719 53.207031 50.460938 54.367188 50.105469 55.425781 C 49.71875 56.582031 48.886719 57.410156 47.945312 58.121094 C 46.957031 58.867188 45.765625 59.355469 44.523438 59.34375 C 43.898438 59.339844 43.027344 59.183594 42.527344 58.789062 C 42.304688 58.617188 42.089844 58.445312 41.871094 58.273438 C 41.769531 58.195312 41.785156 58.464844 41.859375 58.523438 C 42.066406 58.6875 42.277344 58.851562 42.488281 59.015625 C 42.914062 59.351562 43.582031 59.496094 44.101562 59.578125 C 45.195312 59.742188 46.347656 59.410156 47.292969 58.863281 C 49.101562 57.816406 50.375 56.25 50.558594 54.109375 C 50.699219 52.460938 50.214844 50.660156 49.070312 49.449219 C 48.023438 48.34375 46.5 47.746094 45.007812 47.644531 C 42.601562 47.484375 40.40625 48.855469 39.664062 51.207031 C 39.273438 52.457031 39.414062 53.875 39.746094 55.121094 C 40.097656 56.425781 40.785156 57.695312 41.859375 58.523438 C 41.957031 58.601562 41.941406 58.332031 41.871094 58.273438 " fill-opacity="1" fill-rule="nonzero"/></g><path fill="#949594" d="M 46.238281 48.714844 C 48.207031 49.433594 49.640625 51.691406 49.792969 53.753906 C 49.925781 55.539062 48.820312 57.125 47.265625 57.867188 C 45.855469 58.539062 44.113281 58.550781 42.703125 57.878906 C 40.714844 56.925781 39.699219 54.304688 40.261719 52.210938 C 40.617188 50.910156 41.679688 49.632812 42.808594 48.933594 C 43.457031 48.535156 44.210938 48.355469 44.96875 48.382812 C 45.429688 48.398438 45.8125 48.554688 46.238281 48.714844 C 46.335938 48.75 46.304688 48.480469 46.210938 48.445312 C 45.460938 48.167969 44.789062 48.035156 43.984375 48.179688 C 43.027344 48.355469 42.1875 48.953125 41.535156 49.660156 C 40.878906 50.367188 40.328125 51.253906 40.074219 52.191406 C 39.804688 53.1875 39.941406 54.253906 40.277344 55.214844 C 40.832031 56.816406 42.003906 58.042969 43.636719 58.472656 C 45.066406 58.851562 46.660156 58.59375 47.914062 57.816406 C 49.453125 56.863281 50.183594 55.023438 49.882812 53.25 C 49.546875 51.257812 48.132812 49.148438 46.210938 48.445312 C 46.113281 48.410156 46.148438 48.679688 46.238281 48.714844 " fill-opacity="1" fill-rule="nonzero"/><g clip-path="url(#183daeec3c)"><path fill="#55929a" d="M 257.675781 42.371094 C 257.515625 41.824219 256.523438 41.714844 256.046875 41.863281 C 255.25 42.042969 254.855469 42.773438 254.816406 43.46875 C 254.734375 44.675781 256.441406 45.769531 257.515625 44.785156 C 258.03125 44.34375 258.269531 43.140625 257.792969 42.59375 " fill-opacity="1" fill-rule="nonzero"/></g><g clip-path="url(#052db5f9e1)"><path fill="#52718d" d="M 259.054688 33.476562 C 260.710938 35.296875 264.765625 33.851562 266.332031 32.386719 C 269.058594 30.179688 269.203125 26.605469 268.035156 23.84375 C 266.042969 19.027344 257.34375 18.003906 255.070312 23.84375 C 253.90625 26.511719 255.285156 31.628906 258.175781 32.851562 " fill-opacity="1" fill-rule="nonzero"/></g><path fill="#949594" d="M 263.953125 38.265625 C 261.867188 36.679688 260.984375 33.757812 261.113281 31.234375 C 261.226562 28.996094 262.574219 26.964844 264.621094 26.023438 C 266.453125 25.1875 268.628906 25.296875 270.476562 26.011719 C 272.578125 26.828125 273.984375 28.476562 274.492188 30.648438 C 274.808594 32 274.746094 33.429688 274.300781 34.746094 C 273.8125 36.171875 272.769531 37.195312 271.582031 38.078125 C 270.34375 39 268.84375 39.601562 267.285156 39.589844 C 266.503906 39.585938 265.40625 39.390625 264.777344 38.902344 C 264.503906 38.691406 264.226562 38.476562 263.953125 38.265625 C 263.828125 38.171875 263.847656 38.503906 263.9375 38.574219 L 264.730469 39.183594 C 265.265625 39.601562 266.101562 39.777344 266.753906 39.875 C 268.132812 40.082031 269.578125 39.671875 270.765625 38.996094 C 273.042969 37.699219 274.636719 35.761719 274.867188 33.113281 C 275.046875 31.074219 274.4375 28.847656 273 27.347656 C 271.683594 25.980469 269.769531 25.242188 267.894531 25.121094 C 264.871094 24.921875 262.113281 26.613281 261.183594 29.523438 C 260.691406 31.070312 260.867188 32.824219 261.285156 34.363281 C 261.726562 35.976562 262.589844 37.546875 263.9375 38.574219 C 264.0625 38.667969 264.042969 38.335938 263.953125 38.265625 " fill-opacity="1" fill-rule="nonzero"/><path fill="#949594" d="M 269.445312 26.441406 C 271.914062 27.332031 273.714844 30.125 273.90625 32.675781 C 274.074219 34.882812 272.683594 36.84375 270.734375 37.761719 C 268.960938 38.589844 266.773438 38.609375 265 37.777344 C 262.5 36.601562 261.222656 33.359375 261.933594 30.769531 C 262.378906 29.15625 263.714844 27.578125 265.132812 26.714844 C 265.945312 26.21875 266.894531 26 267.84375 26.03125 C 268.429688 26.050781 268.90625 26.242188 269.445312 26.441406 C 269.5625 26.484375 269.523438 26.152344 269.40625 26.109375 C 268.464844 25.765625 267.621094 25.601562 266.609375 25.78125 C 265.40625 26 264.355469 26.738281 263.535156 27.609375 C 262.710938 28.488281 262.015625 29.582031 261.699219 30.742188 C 261.359375 31.976562 261.53125 33.292969 261.949219 34.484375 C 262.648438 36.464844 264.125 37.980469 266.171875 38.511719 C 267.972656 38.980469 269.972656 38.664062 271.546875 37.699219 C 273.480469 36.519531 274.398438 34.242188 274.023438 32.050781 C 273.601562 29.589844 271.824219 26.980469 269.40625 26.109375 C 269.285156 26.066406 269.328125 26.398438 269.445312 26.441406 " fill-opacity="1" fill-rule="nonzero"/><g clip-path="url(#989969f7be)"><path fill="#55929a" d="M 281.78125 34.109375 C 281.621094 33.5625 280.628906 33.453125 280.152344 33.597656 C 279.355469 33.78125 278.960938 34.511719 278.921875 35.207031 C 278.839844 36.410156 280.546875 37.507812 281.621094 36.519531 C 282.136719 36.082031 282.375 34.875 281.898438 34.328125 " fill-opacity="1" fill-rule="nonzero"/></g><g clip-path="url(#b9670192ae)"><path fill="#949594" d="M 287.800781 23.488281 C 290.175781 22.808594 290.652344 18.550781 290.019531 16.507812 C 289.226562 13.105469 286.058594 11.402344 283.050781 11.230469 C 277.824219 10.890625 273.070312 18.210938 277.347656 22.808594 C 279.25 25.019531 284.476562 26.042969 286.851562 24 " fill-opacity="1" fill-rule="nonzero"/></g></svg>