<svg xmlns="http://www.w3.org/2000/svg" xmlns:xlink="http://www.w3.org/1999/xlink" width="50" zoomAndPan="magnify" viewBox="0 0 37.5 37.499999" height="50" preserveAspectRatio="xMidYMid meet" version="1.0"><defs><clipPath id="id1"><path d="M 1 4.152344 L 36 4.152344 L 36 9 L 1 9 Z M 1 4.152344 " clip-rule="nonzero"/></clipPath><clipPath id="id2"><path d="M 1 28 L 36 28 L 36 33.402344 L 1 33.402344 Z M 1 28 " clip-rule="nonzero"/></clipPath></defs><g clip-path="url(#id1)"><path fill="#ec4899" d="M 24.652344 4.273438 C 19.289062 4.351562 4.609375 4.652344 2.664062 4.941406 C 0.679688 5.238281 1.347656 8.125 3.113281 8.261719 C 7.167969 8.578125 35.15625 8.605469 33.878906 8.605469 C 36.699219 8.605469 36.703125 4.203125 33.878906 4.203125 C 35.105469 4.203125 26.835938 4.242188 24.652344 4.273438 Z M 24.652344 4.273438 " fill-opacity="1" fill-rule="nonzero"/></g><path fill="#ec4899" d="M 24.652344 16.621094 C 19.289062 16.695312 4.609375 17 2.664062 17.289062 C 0.679688 17.585938 1.347656 20.472656 3.113281 20.609375 C 7.167969 20.921875 35.15625 20.953125 33.878906 20.953125 C 36.699219 20.953125 36.703125 16.550781 33.878906 16.550781 C 35.105469 16.550781 26.835938 16.585938 24.652344 16.621094 Z M 24.652344 16.621094 " fill-opacity="1" fill-rule="nonzero"/><g clip-path="url(#id2)"><path fill="#ec4899" d="M 24.652344 28.964844 C 19.289062 29.042969 4.609375 29.34375 2.664062 29.636719 C 0.679688 29.929688 1.347656 32.816406 3.113281 32.953125 C 7.167969 33.269531 35.15625 33.296875 33.878906 33.296875 C 36.699219 33.296875 36.703125 28.894531 33.878906 28.894531 C 35.105469 28.894531 26.835938 28.933594 24.652344 28.964844 Z M 24.652344 28.964844 " fill-opacity="1" fill-rule="nonzero"/></g></svg>