<svg xmlns="http://www.w3.org/2000/svg" xmlns:xlink="http://www.w3.org/1999/xlink" width="150" zoomAndPan="magnify" viewBox="0 0 112.5 112.499997" height="150" preserveAspectRatio="xMidYMid meet" version="1.0"><defs><clipPath id="68da496698"><path d="M 1.515625 1.515625 L 111.015625 1.515625 L 111.015625 111.015625 L 1.515625 111.015625 Z M 1.515625 1.515625 " clip-rule="nonzero"/></clipPath><clipPath id="8dfea9c2a1"><path d="M 111.019531 56.265625 C 111.019531 86.503906 86.503906 111.019531 56.265625 111.019531 C 26.023438 111.019531 1.511719 86.503906 1.511719 56.265625 C 1.511719 26.023438 26.023438 1.511719 56.265625 1.511719 C 86.503906 1.511719 111.019531 26.023438 111.019531 56.265625 " clip-rule="nonzero"/></clipPath><clipPath id="e77075c77a"><path d="M 77.09375 87 L 85.375 87 L 85.375 111.015625 L 77.09375 111.015625 Z M 77.09375 87 " clip-rule="nonzero"/></clipPath><clipPath id="7c45586486"><path d="M 111.019531 56.265625 C 111.019531 86.503906 86.503906 111.019531 56.265625 111.019531 C 26.023438 111.019531 1.511719 86.503906 1.511719 56.265625 C 1.511719 26.023438 26.023438 1.511719 56.265625 1.511719 C 86.503906 1.511719 111.019531 26.023438 111.019531 56.265625 " clip-rule="nonzero"/></clipPath><clipPath id="f7854c3012"><path d="M 77.09375 92.699219 L 78.367188 92.699219 L 78.367188 93.976562 L 77.09375 93.976562 Z M 77.09375 92.699219 " clip-rule="nonzero"/></clipPath><clipPath id="02528431aa"><path d="M 111.019531 56.265625 C 111.019531 86.503906 86.503906 111.019531 56.265625 111.019531 C 26.023438 111.019531 1.511719 86.503906 1.511719 56.265625 C 1.511719 26.023438 26.023438 1.511719 56.265625 1.511719 C 86.503906 1.511719 111.019531 26.023438 111.019531 56.265625 " clip-rule="nonzero"/></clipPath><clipPath id="0078057682"><path d="M 77.09375 90.789062 L 85 90.789062 L 85 106.714844 L 77.09375 106.714844 Z M 77.09375 90.789062 " clip-rule="nonzero"/></clipPath><clipPath id="08a52b6f0d"><path d="M 111.019531 56.265625 C 111.019531 86.503906 86.503906 111.019531 56.265625 111.019531 C 26.023438 111.019531 1.511719 86.503906 1.511719 56.265625 C 1.511719 26.023438 26.023438 1.511719 56.265625 1.511719 C 86.503906 1.511719 111.019531 26.023438 111.019531 56.265625 " clip-rule="nonzero"/></clipPath><clipPath id="5f98a41ba6"><path d="M 73.273438 73.273438 L 87.921875 73.273438 L 87.921875 100.34375 L 73.273438 100.34375 Z M 73.273438 73.273438 " clip-rule="nonzero"/></clipPath><clipPath id="1e294e178f"><path d="M 111.019531 56.265625 C 111.019531 86.503906 86.503906 111.019531 56.265625 111.019531 C 26.023438 111.019531 1.511719 86.503906 1.511719 56.265625 C 1.511719 26.023438 26.023438 1.511719 56.265625 1.511719 C 86.503906 1.511719 111.019531 26.023438 111.019531 56.265625 " clip-rule="nonzero"/></clipPath><clipPath id="25fc6f45da"><path d="M 73.273438 77.730469 L 79.960938 77.730469 L 79.960938 100.34375 L 73.273438 100.34375 Z M 73.273438 77.730469 " clip-rule="nonzero"/></clipPath><clipPath id="4cb83f8b93"><path d="M 111.019531 56.265625 C 111.019531 86.503906 86.503906 111.019531 56.265625 111.019531 C 26.023438 111.019531 1.511719 86.503906 1.511719 56.265625 C 1.511719 26.023438 26.023438 1.511719 56.265625 1.511719 C 86.503906 1.511719 111.019531 26.023438 111.019531 56.265625 " clip-rule="nonzero"/></clipPath><clipPath id="bda0acfcc3"><path d="M 27.410156 87 L 35.6875 87 L 35.6875 111.015625 L 27.410156 111.015625 Z M 27.410156 87 " clip-rule="nonzero"/></clipPath><clipPath id="1e8d602ca7"><path d="M 111.019531 56.265625 C 111.019531 86.503906 86.503906 111.019531 56.265625 111.019531 C 26.023438 111.019531 1.511719 86.503906 1.511719 56.265625 C 1.511719 26.023438 26.023438 1.511719 56.265625 1.511719 C 86.503906 1.511719 111.019531 26.023438 111.019531 56.265625 " clip-rule="nonzero"/></clipPath><clipPath id="7af508eb83"><path d="M 27.726562 90.789062 L 28.683594 90.789062 L 28.683594 101.617188 L 27.726562 101.617188 Z M 27.726562 90.789062 " clip-rule="nonzero"/></clipPath><clipPath id="49aead3d1d"><path d="M 111.019531 56.265625 C 111.019531 86.503906 86.503906 111.019531 56.265625 111.019531 C 26.023438 111.019531 1.511719 86.503906 1.511719 56.265625 C 1.511719 26.023438 26.023438 1.511719 56.265625 1.511719 C 86.503906 1.511719 111.019531 26.023438 111.019531 56.265625 " clip-rule="nonzero"/></clipPath><clipPath id="f05a9f77d6"><path d="M 27.726562 90.789062 L 35.6875 90.789062 L 35.6875 107 L 27.726562 107 Z M 27.726562 90.789062 " clip-rule="nonzero"/></clipPath><clipPath id="b6e4e71301"><path d="M 111.019531 56.265625 C 111.019531 86.503906 86.503906 111.019531 56.265625 111.019531 C 26.023438 111.019531 1.511719 86.503906 1.511719 56.265625 C 1.511719 26.023438 26.023438 1.511719 56.265625 1.511719 C 86.503906 1.511719 111.019531 26.023438 111.019531 56.265625 " clip-rule="nonzero"/></clipPath><clipPath id="147d2c2400"><path d="M 24.542969 73.273438 L 39.191406 73.273438 L 39.191406 100.34375 L 24.542969 100.34375 Z M 24.542969 73.273438 " clip-rule="nonzero"/></clipPath><clipPath id="8a05e49759"><path d="M 111.019531 56.265625 C 111.019531 86.503906 86.503906 111.019531 56.265625 111.019531 C 26.023438 111.019531 1.511719 86.503906 1.511719 56.265625 C 1.511719 26.023438 26.023438 1.511719 56.265625 1.511719 C 86.503906 1.511719 111.019531 26.023438 111.019531 56.265625 " clip-rule="nonzero"/></clipPath><clipPath id="bc06915841"><path d="M 31.230469 75 L 39.191406 75 L 39.191406 100.34375 L 31.230469 100.34375 Z M 31.230469 75 " clip-rule="nonzero"/></clipPath><clipPath id="a4994ba594"><path d="M 111.019531 56.265625 C 111.019531 86.503906 86.503906 111.019531 56.265625 111.019531 C 26.023438 111.019531 1.511719 86.503906 1.511719 56.265625 C 1.511719 26.023438 26.023438 1.511719 56.265625 1.511719 C 86.503906 1.511719 111.019531 26.023438 111.019531 56.265625 " clip-rule="nonzero"/></clipPath><clipPath id="aea9206152"><path d="M 34.414062 68.175781 L 78.367188 68.175781 L 78.367188 111.015625 L 34.414062 111.015625 Z M 34.414062 68.175781 " clip-rule="nonzero"/></clipPath><clipPath id="bbc275c5b9"><path d="M 111.019531 56.265625 C 111.019531 86.503906 86.503906 111.019531 56.265625 111.019531 C 26.023438 111.019531 1.511719 86.503906 1.511719 56.265625 C 1.511719 26.023438 26.023438 1.511719 56.265625 1.511719 C 86.503906 1.511719 111.019531 26.023438 111.019531 56.265625 " clip-rule="nonzero"/></clipPath><clipPath id="748b86b115"><path d="M 48.746094 58.941406 L 64.355469 58.941406 L 64.355469 72.953125 L 48.746094 72.953125 Z M 48.746094 58.941406 " clip-rule="nonzero"/></clipPath><clipPath id="3219673b58"><path d="M 111.019531 56.265625 C 111.019531 86.503906 86.503906 111.019531 56.265625 111.019531 C 26.023438 111.019531 1.511719 86.503906 1.511719 56.265625 C 1.511719 26.023438 26.023438 1.511719 56.265625 1.511719 C 86.503906 1.511719 111.019531 26.023438 111.019531 56.265625 " clip-rule="nonzero"/></clipPath><clipPath id="d1ce53b52c"><path d="M 62.441406 61.804688 L 63.398438 61.804688 L 63.398438 66.582031 L 62.441406 66.582031 Z M 62.441406 61.804688 " clip-rule="nonzero"/></clipPath><clipPath id="9766dab996"><path d="M 111.019531 56.265625 C 111.019531 86.503906 86.503906 111.019531 56.265625 111.019531 C 26.023438 111.019531 1.511719 86.503906 1.511719 56.265625 C 1.511719 26.023438 26.023438 1.511719 56.265625 1.511719 C 86.503906 1.511719 111.019531 26.023438 111.019531 56.265625 " clip-rule="nonzero"/></clipPath><clipPath id="54338e03b7"><path d="M 50.023438 61.804688 L 63.398438 61.804688 L 63.398438 66.582031 L 50.023438 66.582031 Z M 50.023438 61.804688 " clip-rule="nonzero"/></clipPath><clipPath id="d85eb33dd0"><path d="M 111.019531 56.265625 C 111.019531 86.503906 86.503906 111.019531 56.265625 111.019531 C 26.023438 111.019531 1.511719 86.503906 1.511719 56.265625 C 1.511719 26.023438 26.023438 1.511719 56.265625 1.511719 C 86.503906 1.511719 111.019531 26.023438 111.019531 56.265625 " clip-rule="nonzero"/></clipPath><clipPath id="b9039a05cb"><path d="M 69.132812 39.511719 L 75.183594 39.511719 L 75.183594 49 L 69.132812 49 Z M 69.132812 39.511719 " clip-rule="nonzero"/></clipPath><clipPath id="7c4b30e8b6"><path d="M 111.019531 56.265625 C 111.019531 86.503906 86.503906 111.019531 56.265625 111.019531 C 26.023438 111.019531 1.511719 86.503906 1.511719 56.265625 C 1.511719 26.023438 26.023438 1.511719 56.265625 1.511719 C 86.503906 1.511719 111.019531 26.023438 111.019531 56.265625 " clip-rule="nonzero"/></clipPath><clipPath id="aa253c236f"><path d="M 71.042969 41.421875 L 74.226562 41.421875 L 74.226562 47.792969 L 71.042969 47.792969 Z M 71.042969 41.421875 " clip-rule="nonzero"/></clipPath><clipPath id="1cb4598342"><path d="M 111.019531 56.265625 C 111.019531 86.503906 86.503906 111.019531 56.265625 111.019531 C 26.023438 111.019531 1.511719 86.503906 1.511719 56.265625 C 1.511719 26.023438 26.023438 1.511719 56.265625 1.511719 C 86.503906 1.511719 111.019531 26.023438 111.019531 56.265625 " clip-rule="nonzero"/></clipPath><clipPath id="bf7ea877f4"><path d="M 70.722656 41.105469 L 74.226562 41.105469 L 74.226562 47.792969 L 70.722656 47.792969 Z M 70.722656 41.105469 " clip-rule="nonzero"/></clipPath><clipPath id="a1813f349a"><path d="M 111.019531 56.265625 C 111.019531 86.503906 86.503906 111.019531 56.265625 111.019531 C 26.023438 111.019531 1.511719 86.503906 1.511719 56.265625 C 1.511719 26.023438 26.023438 1.511719 56.265625 1.511719 C 86.503906 1.511719 111.019531 26.023438 111.019531 56.265625 " clip-rule="nonzero"/></clipPath><clipPath id="8adeb1674f"><path d="M 71.359375 41.742188 L 73.589844 41.742188 L 73.589844 44.605469 L 71.359375 44.605469 Z M 71.359375 41.742188 " clip-rule="nonzero"/></clipPath><clipPath id="96731cd209"><path d="M 111.019531 56.265625 C 111.019531 86.503906 86.503906 111.019531 56.265625 111.019531 C 26.023438 111.019531 1.511719 86.503906 1.511719 56.265625 C 1.511719 26.023438 26.023438 1.511719 56.265625 1.511719 C 86.503906 1.511719 111.019531 26.023438 111.019531 56.265625 " clip-rule="nonzero"/></clipPath><clipPath id="ffda701ccf"><path d="M 37.601562 39.511719 L 43.652344 39.511719 L 43.652344 49 L 37.601562 49 Z M 37.601562 39.511719 " clip-rule="nonzero"/></clipPath><clipPath id="f4014f2c65"><path d="M 111.019531 56.265625 C 111.019531 86.503906 86.503906 111.019531 56.265625 111.019531 C 26.023438 111.019531 1.511719 86.503906 1.511719 56.265625 C 1.511719 26.023438 26.023438 1.511719 56.265625 1.511719 C 86.503906 1.511719 111.019531 26.023438 111.019531 56.265625 " clip-rule="nonzero"/></clipPath><clipPath id="c2244b4bac"><path d="M 38.875 41.421875 L 41.742188 41.421875 L 41.742188 47.472656 L 38.875 47.472656 Z M 38.875 41.421875 " clip-rule="nonzero"/></clipPath><clipPath id="cafd9e18e1"><path d="M 111.019531 56.265625 C 111.019531 86.503906 86.503906 111.019531 56.265625 111.019531 C 26.023438 111.019531 1.511719 86.503906 1.511719 56.265625 C 1.511719 26.023438 26.023438 1.511719 56.265625 1.511719 C 86.503906 1.511719 111.019531 26.023438 111.019531 56.265625 " clip-rule="nonzero"/></clipPath><clipPath id="ce1c1ab3d2"><path d="M 38.875 41.105469 L 42.378906 41.105469 L 42.378906 47.792969 L 38.875 47.792969 Z M 38.875 41.105469 " clip-rule="nonzero"/></clipPath><clipPath id="531533a570"><path d="M 111.019531 56.265625 C 111.019531 86.503906 86.503906 111.019531 56.265625 111.019531 C 26.023438 111.019531 1.511719 86.503906 1.511719 56.265625 C 1.511719 26.023438 26.023438 1.511719 56.265625 1.511719 C 86.503906 1.511719 111.019531 26.023438 111.019531 56.265625 " clip-rule="nonzero"/></clipPath><clipPath id="4799789161"><path d="M 39.511719 41.742188 L 41.742188 41.742188 L 41.742188 44.605469 L 39.511719 44.605469 Z M 39.511719 41.742188 " clip-rule="nonzero"/></clipPath><clipPath id="722288c2db"><path d="M 111.019531 56.265625 C 111.019531 86.503906 86.503906 111.019531 56.265625 111.019531 C 26.023438 111.019531 1.511719 86.503906 1.511719 56.265625 C 1.511719 26.023438 26.023438 1.511719 56.265625 1.511719 C 86.503906 1.511719 111.019531 26.023438 111.019531 56.265625 " clip-rule="nonzero"/></clipPath><clipPath id="cf6b1b6e1d"><path d="M 41.421875 24.859375 L 71.679688 24.859375 L 71.679688 64.671875 L 41.421875 64.671875 Z M 41.421875 24.859375 " clip-rule="nonzero"/></clipPath><clipPath id="331d4c0281"><path d="M 111.019531 56.265625 C 111.019531 86.503906 86.503906 111.019531 56.265625 111.019531 C 26.023438 111.019531 1.511719 86.503906 1.511719 56.265625 C 1.511719 26.023438 26.023438 1.511719 56.265625 1.511719 C 86.503906 1.511719 111.019531 26.023438 111.019531 56.265625 " clip-rule="nonzero"/></clipPath><clipPath id="a713092776"><path d="M 45 29 L 69.132812 29 L 69.132812 34.734375 L 45 34.734375 Z M 45 29 " clip-rule="nonzero"/></clipPath><clipPath id="ee25797c71"><path d="M 111.019531 56.265625 C 111.019531 86.503906 86.503906 111.019531 56.265625 111.019531 C 26.023438 111.019531 1.511719 86.503906 1.511719 56.265625 C 1.511719 26.023438 26.023438 1.511719 56.265625 1.511719 C 86.503906 1.511719 111.019531 26.023438 111.019531 56.265625 " clip-rule="nonzero"/></clipPath><clipPath id="8a402d1e94"><path d="M 56.390625 64.355469 L 57 64.355469 L 57 64.671875 L 56.390625 64.671875 Z M 56.390625 64.355469 " clip-rule="nonzero"/></clipPath><clipPath id="c00eb3b5ca"><path d="M 111.019531 56.265625 C 111.019531 86.503906 86.503906 111.019531 56.265625 111.019531 C 26.023438 111.019531 1.511719 86.503906 1.511719 56.265625 C 1.511719 26.023438 26.023438 1.511719 56.265625 1.511719 C 86.503906 1.511719 111.019531 26.023438 111.019531 56.265625 " clip-rule="nonzero"/></clipPath><clipPath id="9b525d6b2d"><path d="M 41.421875 30.910156 L 67.222656 30.910156 L 67.222656 64.671875 L 41.421875 64.671875 Z M 41.421875 30.910156 " clip-rule="nonzero"/></clipPath><clipPath id="b077062481"><path d="M 111.019531 56.265625 C 111.019531 86.503906 86.503906 111.019531 56.265625 111.019531 C 26.023438 111.019531 1.511719 86.503906 1.511719 56.265625 C 1.511719 26.023438 26.023438 1.511719 56.265625 1.511719 C 86.503906 1.511719 111.019531 26.023438 111.019531 56.265625 " clip-rule="nonzero"/></clipPath><clipPath id="361a2fb200"><path d="M 45 28.683594 L 46.519531 28.683594 L 46.519531 31.230469 L 45 31.230469 Z M 45 28.683594 " clip-rule="nonzero"/></clipPath><clipPath id="698163889d"><path d="M 111.019531 56.265625 C 111.019531 86.503906 86.503906 111.019531 56.265625 111.019531 C 26.023438 111.019531 1.511719 86.503906 1.511719 56.265625 C 1.511719 26.023438 26.023438 1.511719 56.265625 1.511719 C 86.503906 1.511719 111.019531 26.023438 111.019531 56.265625 " clip-rule="nonzero"/></clipPath><clipPath id="acbed16a2f"><path d="M 45 36.328125 L 53.523438 36.328125 L 53.523438 38.875 L 45 38.875 Z M 45 36.328125 " clip-rule="nonzero"/></clipPath><clipPath id="a8bfe6cb83"><path d="M 111.019531 56.265625 C 111.019531 86.503906 86.503906 111.019531 56.265625 111.019531 C 26.023438 111.019531 1.511719 86.503906 1.511719 56.265625 C 1.511719 26.023438 26.023438 1.511719 56.265625 1.511719 C 86.503906 1.511719 111.019531 26.023438 111.019531 56.265625 " clip-rule="nonzero"/></clipPath><clipPath id="343a01c34b"><path d="M 59 36.328125 L 67.539062 36.328125 L 67.539062 38.875 L 59 38.875 Z M 59 36.328125 " clip-rule="nonzero"/></clipPath><clipPath id="b1e2c80908"><path d="M 111.019531 56.265625 C 111.019531 86.503906 86.503906 111.019531 56.265625 111.019531 C 26.023438 111.019531 1.511719 86.503906 1.511719 56.265625 C 1.511719 26.023438 26.023438 1.511719 56.265625 1.511719 C 86.503906 1.511719 111.019531 26.023438 111.019531 56.265625 " clip-rule="nonzero"/></clipPath><clipPath id="4962603fb4"><path d="M 53.523438 48.109375 L 59.257812 48.109375 L 59.257812 50.660156 L 53.523438 50.660156 Z M 53.523438 48.109375 " clip-rule="nonzero"/></clipPath><clipPath id="9b43da0261"><path d="M 111.019531 56.265625 C 111.019531 86.503906 86.503906 111.019531 56.265625 111.019531 C 26.023438 111.019531 1.511719 86.503906 1.511719 56.265625 C 1.511719 26.023438 26.023438 1.511719 56.265625 1.511719 C 86.503906 1.511719 111.019531 26.023438 111.019531 56.265625 " clip-rule="nonzero"/></clipPath><clipPath id="8e1cfed51e"><path d="M 50.339844 53 L 62.761719 53 L 62.761719 57 L 50.339844 57 Z M 50.339844 53 " clip-rule="nonzero"/></clipPath><clipPath id="4a353fcb81"><path d="M 111.019531 56.265625 C 111.019531 86.503906 86.503906 111.019531 56.265625 111.019531 C 26.023438 111.019531 1.511719 86.503906 1.511719 56.265625 C 1.511719 26.023438 26.023438 1.511719 56.265625 1.511719 C 86.503906 1.511719 111.019531 26.023438 111.019531 56.265625 " clip-rule="nonzero"/></clipPath><clipPath id="034123613b"><path d="M 50.339844 53 L 62.761719 53 L 62.761719 55.4375 L 50.339844 55.4375 Z M 50.339844 53 " clip-rule="nonzero"/></clipPath><clipPath id="82d25c8b1c"><path d="M 111.019531 56.265625 C 111.019531 86.503906 86.503906 111.019531 56.265625 111.019531 C 26.023438 111.019531 1.511719 86.503906 1.511719 56.265625 C 1.511719 26.023438 26.023438 1.511719 56.265625 1.511719 C 86.503906 1.511719 111.019531 26.023438 111.019531 56.265625 " clip-rule="nonzero"/></clipPath><clipPath id="13ea7c48d8"><path d="M 54.480469 58.304688 L 58.304688 58.304688 L 58.304688 59.578125 L 54.480469 59.578125 Z M 54.480469 58.304688 " clip-rule="nonzero"/></clipPath><clipPath id="5aa7fa79c4"><path d="M 111.019531 56.265625 C 111.019531 86.503906 86.503906 111.019531 56.265625 111.019531 C 26.023438 111.019531 1.511719 86.503906 1.511719 56.265625 C 1.511719 26.023438 26.023438 1.511719 56.265625 1.511719 C 86.503906 1.511719 111.019531 26.023438 111.019531 56.265625 " clip-rule="nonzero"/></clipPath><clipPath id="6cc9472245"><path d="M 53.84375 49.066406 L 59.257812 49.066406 L 59.257812 51.613281 L 53.84375 51.613281 Z M 53.84375 49.066406 " clip-rule="nonzero"/></clipPath><clipPath id="6421e4c09e"><path d="M 111.019531 56.265625 C 111.019531 86.503906 86.503906 111.019531 56.265625 111.019531 C 26.023438 111.019531 1.511719 86.503906 1.511719 56.265625 C 1.511719 26.023438 26.023438 1.511719 56.265625 1.511719 C 86.503906 1.511719 111.019531 26.023438 111.019531 56.265625 " clip-rule="nonzero"/></clipPath><clipPath id="8ec8c17ae9"><path d="M 50.339844 53 L 52.25 53 L 52.25 55 L 50.339844 55 Z M 50.339844 53 " clip-rule="nonzero"/></clipPath><clipPath id="3522d39aaa"><path d="M 111.019531 56.265625 C 111.019531 86.503906 86.503906 111.019531 56.265625 111.019531 C 26.023438 111.019531 1.511719 86.503906 1.511719 56.265625 C 1.511719 26.023438 26.023438 1.511719 56.265625 1.511719 C 86.503906 1.511719 111.019531 26.023438 111.019531 56.265625 " clip-rule="nonzero"/></clipPath><clipPath id="d60fb0f904"><path d="M 60.851562 53 L 62.761719 53 L 62.761719 55 L 60.851562 55 Z M 60.851562 53 " clip-rule="nonzero"/></clipPath><clipPath id="8c1a12cef8"><path d="M 111.019531 56.265625 C 111.019531 86.503906 86.503906 111.019531 56.265625 111.019531 C 26.023438 111.019531 1.511719 86.503906 1.511719 56.265625 C 1.511719 26.023438 26.023438 1.511719 56.265625 1.511719 C 86.503906 1.511719 111.019531 26.023438 111.019531 56.265625 " clip-rule="nonzero"/></clipPath><clipPath id="c0c31a95ed"><path d="M 39.511719 14.03125 L 75.5 14.03125 L 75.5 41.742188 L 39.511719 41.742188 Z M 39.511719 14.03125 " clip-rule="nonzero"/></clipPath><clipPath id="71c464ddaa"><path d="M 111.019531 56.265625 C 111.019531 86.503906 86.503906 111.019531 56.265625 111.019531 C 26.023438 111.019531 1.511719 86.503906 1.511719 56.265625 C 1.511719 26.023438 26.023438 1.511719 56.265625 1.511719 C 86.503906 1.511719 111.019531 26.023438 111.019531 56.265625 " clip-rule="nonzero"/></clipPath><clipPath id="182b9662d3"><path d="M 40.148438 22.3125 L 68 22.3125 L 68 29 L 40.148438 29 Z M 40.148438 22.3125 " clip-rule="nonzero"/></clipPath><clipPath id="b383028c9b"><path d="M 111.019531 56.265625 C 111.019531 86.503906 86.503906 111.019531 56.265625 111.019531 C 26.023438 111.019531 1.511719 86.503906 1.511719 56.265625 C 1.511719 26.023438 26.023438 1.511719 56.265625 1.511719 C 86.503906 1.511719 111.019531 26.023438 111.019531 56.265625 " clip-rule="nonzero"/></clipPath><clipPath id="77fdc4eb90"><path d="M 37.601562 103.210938 L 73.910156 103.210938 L 73.910156 111.015625 L 37.601562 111.015625 Z M 37.601562 103.210938 " clip-rule="nonzero"/></clipPath><clipPath id="dafdf99af0"><path d="M 111.019531 56.265625 C 111.019531 86.503906 86.503906 111.019531 56.265625 111.019531 C 26.023438 111.019531 1.511719 86.503906 1.511719 56.265625 C 1.511719 26.023438 26.023438 1.511719 56.265625 1.511719 C 86.503906 1.511719 111.019531 26.023438 111.019531 56.265625 " clip-rule="nonzero"/></clipPath><clipPath id="c904415cc1"><path d="M 49.703125 42.058594 L 52.570312 42.058594 L 52.570312 47 L 49.703125 47 Z M 49.703125 42.058594 " clip-rule="nonzero"/></clipPath><clipPath id="6ef9c06cf0"><path d="M 111.019531 56.265625 C 111.019531 86.503906 86.503906 111.019531 56.265625 111.019531 C 26.023438 111.019531 1.511719 86.503906 1.511719 56.265625 C 1.511719 26.023438 26.023438 1.511719 56.265625 1.511719 C 86.503906 1.511719 111.019531 26.023438 111.019531 56.265625 " clip-rule="nonzero"/></clipPath><clipPath id="0420a35abc"><path d="M 60.214844 42.058594 L 63.082031 42.058594 L 63.082031 47 L 60.214844 47 Z M 60.214844 42.058594 " clip-rule="nonzero"/></clipPath><clipPath id="9d151c77bb"><path d="M 111.019531 56.265625 C 111.019531 86.503906 86.503906 111.019531 56.265625 111.019531 C 26.023438 111.019531 1.511719 86.503906 1.511719 56.265625 C 1.511719 26.023438 26.023438 1.511719 56.265625 1.511719 C 86.503906 1.511719 111.019531 26.023438 111.019531 56.265625 " clip-rule="nonzero"/></clipPath></defs><g clip-path="url(#68da496698)"><g clip-path="url(#8dfea9c2a1)"><path fill="#82d7f6" d="M 111.019531 56.265625 C 111.019531 86.503906 86.503906 111.019531 56.265625 111.019531 C 26.023438 111.019531 1.511719 86.503906 1.511719 56.265625 C 1.511719 26.023438 26.023438 1.511719 56.265625 1.511719 C 86.503906 1.511719 111.019531 26.023438 111.019531 56.265625 " fill-opacity="1" fill-rule="nonzero"/></g></g><g clip-path="url(#e77075c77a)"><g clip-path="url(#7c45586486)"><path fill="#f0a176" d="M 83.394531 116.066406 C 84.214844 102.390625 85.070312 87.214844 85.070312 87.214844 L 77.179688 93.910156 C 77.324219 96.296875 77.632812 106.300781 77.917969 116.066406 L 83.394531 116.066406 " fill-opacity="1" fill-rule="nonzero"/></g></g><g clip-path="url(#f7854c3012)"><g clip-path="url(#02528431aa)"><path fill="#b7977b" d="M 77.179688 93.910156 L 78.277344 92.980469 L 77.179688 93.910156 " fill-opacity="1" fill-rule="nonzero"/></g></g><g clip-path="url(#0078057682)"><g clip-path="url(#08a52b6f0d)"><path fill="#d6855a" d="M 77.636719 106.691406 C 77.449219 100.574219 77.277344 95.515625 77.179688 93.910156 L 78.277344 92.980469 L 84.859375 90.902344 C 84.699219 93.71875 84.460938 97.910156 84.183594 102.644531 C 82.859375 103.429688 81.382812 104.082031 79.996094 104.203125 L 79.960938 105.640625 C 79.195312 106.007812 78.421875 106.359375 77.636719 106.691406 " fill-opacity="1" fill-rule="nonzero"/></g></g><g clip-path="url(#5f98a41ba6)"><g clip-path="url(#1e294e178f)"><path fill="#3583b0" d="M 77.210938 73.429688 C 77.210938 73.429688 81.636719 74.90625 83.441406 78.621094 C 85.246094 82.339844 87.902344 95.929688 87.902344 95.929688 C 87.902344 95.929688 84.929688 101.980469 75.90625 99.855469 C 75.90625 99.855469 69.492188 73.753906 77.210938 73.429688 " fill-opacity="1" fill-rule="nonzero"/></g></g><g clip-path="url(#25fc6f45da)"><g clip-path="url(#4cb83f8b93)"><path fill="#337393" d="M 73.703125 77.96875 C 72.386719 85.527344 75.90625 99.855469 75.90625 99.855469 C 76.796875 100.066406 77.625 100.191406 78.402344 100.257812 C 79.453125 95.339844 82.261719 79.121094 73.703125 77.96875 " fill-opacity="1" fill-rule="nonzero"/></g></g><g clip-path="url(#bda0acfcc3)"><g clip-path="url(#1e8d602ca7)"><path fill="#f0a176" d="M 34.851562 116.066406 C 35.136719 106.300781 35.445312 96.296875 35.589844 93.910156 L 27.699219 87.214844 C 27.699219 87.214844 28.558594 102.390625 29.375 116.066406 L 34.851562 116.066406 " fill-opacity="1" fill-rule="nonzero"/></g></g><g clip-path="url(#7af508eb83)"><g clip-path="url(#49aead3d1d)"><path fill="#b7977b" d="M 28.523438 101.601562 C 28.273438 97.292969 28.058594 93.507812 27.910156 90.902344 C 28.058594 93.507812 28.273438 97.292969 28.523438 101.601562 " fill-opacity="1" fill-rule="nonzero"/></g></g><g clip-path="url(#f05a9f77d6)"><g clip-path="url(#b6e4e71301)"><path fill="#d6855a" d="M 35.128906 106.789062 C 34.347656 106.464844 33.574219 106.117188 32.8125 105.753906 L 32.773438 104.203125 C 31.386719 104.082031 29.910156 103.429688 28.585938 102.644531 C 28.5625 102.292969 28.542969 101.945312 28.523438 101.601562 C 28.273438 97.292969 28.058594 93.507812 27.910156 90.902344 L 34.492188 92.980469 L 35.589844 93.910156 C 35.492188 95.527344 35.320312 100.628906 35.128906 106.789062 " fill-opacity="1" fill-rule="nonzero"/></g></g><g clip-path="url(#147d2c2400)"><g clip-path="url(#8a05e49759)"><path fill="#3583b0" d="M 35.320312 73.429688 C 35.320312 73.429688 30.890625 74.90625 29.085938 78.621094 C 27.28125 82.339844 24.628906 95.929688 24.628906 95.929688 C 24.628906 95.929688 27.601562 101.980469 36.625 99.855469 C 36.625 99.855469 43.035156 73.753906 35.320312 73.429688 " fill-opacity="1" fill-rule="nonzero"/></g></g><g clip-path="url(#bc06915841)"><g clip-path="url(#a4994ba594)"><path fill="#337393" d="M 36.625 99.855469 C 36.625 99.855469 41.3125 80.761719 37.839844 75.03125 C 37.503906 75.054688 37.15625 75.113281 36.785156 75.226562 C 27.476562 77.960938 32.59375 95.402344 34.21875 100.25 C 34.96875 100.183594 35.769531 100.058594 36.625 99.855469 " fill-opacity="1" fill-rule="nonzero"/></g></g><g clip-path="url(#aea9206152)"><g clip-path="url(#bbc275c5b9)"><path fill="#3583b0" d="M 73.148438 116.066406 C 75.308594 100.351562 78.527344 75.917969 78.027344 73.632812 C 78.027344 73.632812 65.167969 69.386719 62.9375 68.324219 L 56.363281 69.359375 L 49.789062 68.324219 C 47.558594 69.386719 34.699219 73.632812 34.699219 73.632812 C 34.199219 75.917969 37.421875 100.351562 39.574219 116.066406 L 73.148438 116.066406 " fill-opacity="1" fill-rule="nonzero"/></g></g><g clip-path="url(#748b86b115)"><g clip-path="url(#3219673b58)"><path fill="#da8b65" d="M 62.257812 58.980469 L 56.503906 60.652344 L 50.746094 58.980469 C 50.746094 58.980469 50.292969 66.945312 48.9375 68.777344 C 48.9375 68.777344 52.761719 72.597656 56.503906 72.757812 C 60.246094 72.597656 64.066406 68.777344 64.066406 68.777344 C 62.714844 66.945312 62.257812 58.980469 62.257812 58.980469 " fill-opacity="1" fill-rule="nonzero"/></g></g><g clip-path="url(#d1ce53b52c)"><g clip-path="url(#9766dab996)"><path fill="#908475" d="M 63.183594 66.347656 C 62.878906 64.988281 62.660156 63.359375 62.511719 61.976562 L 62.515625 61.972656 C 62.660156 63.359375 62.878906 64.988281 63.183594 66.347656 " fill-opacity="1" fill-rule="nonzero"/></g></g><g clip-path="url(#54338e03b7)"><g clip-path="url(#d85eb33dd0)"><path fill="#b06749" d="M 60.5625 66.488281 C 54.832031 66.488281 51.484375 64.417969 50.304688 63.527344 C 50.378906 62.988281 50.441406 62.457031 50.492188 61.957031 C 52.683594 63.480469 54.875 64.414062 56.503906 64.414062 C 56.503906 64.414062 56.507812 64.414062 56.507812 64.414062 C 56.511719 64.414062 56.511719 64.414062 56.511719 64.414062 C 56.515625 64.414062 56.515625 64.414062 56.515625 64.414062 C 56.515625 64.414062 56.519531 64.414062 56.519531 64.414062 C 56.519531 64.414062 56.523438 64.414062 56.527344 64.414062 C 56.53125 64.414062 56.53125 64.414062 56.535156 64.414062 C 56.539062 64.414062 56.539062 64.414062 56.542969 64.414062 C 56.546875 64.414062 56.546875 64.414062 56.550781 64.414062 C 56.554688 64.414062 56.558594 64.414062 56.558594 64.414062 C 56.558594 64.414062 56.558594 64.414062 56.5625 64.414062 C 56.5625 64.414062 56.566406 64.414062 56.570312 64.414062 C 56.570312 64.414062 56.574219 64.414062 56.574219 64.414062 C 56.574219 64.414062 56.578125 64.414062 56.578125 64.414062 C 56.578125 64.414062 56.582031 64.414062 56.582031 64.414062 C 56.585938 64.414062 56.585938 64.414062 56.585938 64.414062 C 56.589844 64.414062 56.589844 64.414062 56.59375 64.414062 C 56.597656 64.414062 56.597656 64.414062 56.601562 64.414062 C 56.609375 64.414062 56.613281 64.414062 56.617188 64.414062 C 56.617188 64.414062 56.621094 64.414062 56.621094 64.414062 C 56.621094 64.414062 56.625 64.414062 56.625 64.414062 C 56.625 64.414062 56.628906 64.414062 56.628906 64.414062 C 56.628906 64.414062 56.632812 64.414062 56.636719 64.414062 C 56.636719 64.414062 56.640625 64.414062 56.644531 64.414062 C 56.648438 64.414062 56.648438 64.414062 56.652344 64.410156 C 56.65625 64.410156 56.65625 64.410156 56.660156 64.410156 C 56.664062 64.410156 56.664062 64.410156 56.667969 64.410156 C 56.675781 64.410156 56.679688 64.410156 56.683594 64.410156 L 56.6875 64.410156 C 56.695312 64.410156 56.703125 64.410156 56.710938 64.410156 C 56.71875 64.410156 56.722656 64.410156 56.726562 64.410156 L 56.730469 64.410156 C 56.730469 64.410156 56.734375 64.410156 56.738281 64.410156 C 56.742188 64.40625 56.746094 64.40625 56.753906 64.40625 C 58.347656 64.320312 60.429688 63.410156 62.511719 61.976562 C 62.660156 63.359375 62.878906 64.988281 63.183594 66.347656 C 62.261719 66.445312 61.386719 66.488281 60.5625 66.488281 " fill-opacity="1" fill-rule="nonzero"/></g></g><g clip-path="url(#b9039a05cb)"><g clip-path="url(#7c4b30e8b6)"><path fill="#d17a50" d="M 69.433594 44.058594 C 69.242188 46.644531 70.367188 48.839844 71.945312 48.957031 C 73.527344 49.074219 74.964844 47.074219 75.160156 44.484375 C 75.351562 41.894531 74.226562 39.703125 72.644531 39.582031 C 71.066406 39.464844 69.628906 41.46875 69.433594 44.058594 " fill-opacity="1" fill-rule="nonzero"/></g></g><g clip-path="url(#aa253c236f)"><g clip-path="url(#1cb4598342)"><path fill="#ba6449" d="M 72.265625 47.511719 C 71.921875 47.511719 71.589844 47.175781 71.429688 46.082031 C 71.429688 46.082031 73.367188 45.542969 71.683594 44.789062 L 71.375 44.671875 C 71.378906 44.414062 71.378906 44.160156 71.378906 43.910156 C 71.378906 43.402344 71.371094 42.882812 71.355469 42.359375 C 71.554688 41.847656 71.910156 41.449219 72.539062 41.449219 C 72.5625 41.449219 72.582031 41.449219 72.605469 41.453125 C 74.179688 41.515625 74.058594 43.414062 74.074219 43.414062 C 74.078125 43.414062 74.085938 43.355469 74.109375 43.21875 C 74.109375 43.21875 74.097656 43.949219 73.699219 44.042969 C 73.699219 44.042969 73.957031 42.542969 72.605469 42.226562 C 72.605469 42.226562 73.511719 42.742188 73.355469 44.953125 C 73.355469 44.953125 73.320312 43.898438 72.007812 43.589844 C 72.007812 43.589844 73.980469 45.25 72.296875 46.34375 C 72.296875 46.34375 72.328125 46.953125 72.757812 46.953125 C 72.917969 46.953125 73.125 46.875 73.40625 46.652344 C 73.40625 46.652344 72.816406 47.511719 72.265625 47.511719 " fill-opacity="1" fill-rule="nonzero"/></g></g><g clip-path="url(#bf7ea877f4)"><g clip-path="url(#a1813f349a)"><path fill="#9a4f36" d="M 74.113281 43.644531 C 74.121094 43.355469 74.078125 43.066406 73.996094 42.796875 C 73.953125 42.664062 73.898438 42.53125 73.828125 42.410156 C 73.761719 42.289062 73.679688 42.171875 73.582031 42.074219 C 73.539062 42.023438 73.488281 41.976562 73.433594 41.933594 C 73.378906 41.890625 73.328125 41.84375 73.265625 41.8125 C 73.152344 41.734375 73.027344 41.679688 72.898438 41.628906 C 72.765625 41.59375 72.632812 41.546875 72.5 41.53125 C 72.359375 41.515625 72.242188 41.523438 72.117188 41.566406 C 71.878906 41.644531 71.695312 41.847656 71.574219 42.089844 C 71.449219 42.328125 71.378906 42.601562 71.324219 42.875 C 71.273438 43.152344 71.246094 43.433594 71.230469 43.714844 C 71.222656 43.855469 71.21875 44 71.222656 44.140625 L 71.226562 44.570312 L 71.132812 44.445312 C 71.363281 44.515625 71.582031 44.601562 71.804688 44.707031 C 71.914062 44.757812 72.019531 44.816406 72.121094 44.886719 C 72.226562 44.960938 72.328125 45.039062 72.40625 45.164062 C 72.449219 45.222656 72.476562 45.304688 72.484375 45.386719 C 72.484375 45.46875 72.464844 45.554688 72.421875 45.617188 C 72.34375 45.746094 72.234375 45.824219 72.128906 45.894531 C 71.917969 46.023438 71.691406 46.113281 71.464844 46.183594 L 71.535156 46.066406 C 71.570312 46.34375 71.636719 46.625 71.742188 46.882812 C 71.796875 47.011719 71.863281 47.132812 71.953125 47.234375 C 72 47.28125 72.046875 47.324219 72.101562 47.355469 C 72.15625 47.390625 72.21875 47.402344 72.28125 47.414062 C 72.339844 47.417969 72.40625 47.410156 72.472656 47.398438 C 72.535156 47.375 72.597656 47.351562 72.660156 47.316406 C 72.78125 47.25 72.898438 47.164062 73 47.066406 C 73.210938 46.871094 73.398438 46.644531 73.578125 46.417969 C 73.425781 46.664062 73.257812 46.902344 73.054688 47.117188 C 72.953125 47.226562 72.839844 47.324219 72.714844 47.410156 C 72.652344 47.453125 72.582031 47.484375 72.507812 47.511719 C 72.433594 47.535156 72.351562 47.554688 72.269531 47.550781 C 72.1875 47.542969 72.105469 47.523438 72.03125 47.484375 C 71.957031 47.449219 71.894531 47.394531 71.839844 47.339844 C 71.726562 47.226562 71.648438 47.09375 71.582031 46.953125 C 71.453125 46.679688 71.375 46.394531 71.324219 46.09375 L 71.308594 46.011719 L 71.394531 45.980469 C 71.609375 45.898438 71.820312 45.8125 72.003906 45.699219 C 72.09375 45.640625 72.175781 45.570312 72.214844 45.5 C 72.242188 45.464844 72.242188 45.429688 72.242188 45.398438 C 72.234375 45.367188 72.230469 45.332031 72.203125 45.292969 C 72.101562 45.144531 71.890625 45.027344 71.695312 44.933594 C 71.492188 44.839844 71.273438 44.761719 71.058594 44.699219 L 70.96875 44.671875 L 70.964844 44.570312 C 70.957031 44.4375 70.953125 44.28125 70.957031 44.136719 C 70.957031 43.992188 70.960938 43.847656 70.96875 43.699219 C 70.992188 43.410156 71.023438 43.117188 71.082031 42.828125 C 71.140625 42.539062 71.222656 42.25 71.367188 41.980469 C 71.441406 41.847656 71.527344 41.714844 71.640625 41.605469 C 71.753906 41.492188 71.898438 41.40625 72.054688 41.363281 C 72.207031 41.3125 72.382812 41.316406 72.527344 41.339844 C 72.679688 41.363281 72.816406 41.417969 72.960938 41.46875 C 73.097656 41.53125 73.234375 41.589844 73.355469 41.683594 C 73.417969 41.722656 73.472656 41.773438 73.53125 41.824219 C 73.585938 41.871094 73.636719 41.925781 73.683594 41.984375 C 73.734375 42.042969 73.777344 42.101562 73.816406 42.167969 C 73.855469 42.230469 73.894531 42.292969 73.921875 42.363281 C 73.984375 42.496094 74.035156 42.636719 74.066406 42.777344 C 74.132812 43.0625 74.152344 43.355469 74.113281 43.644531 " fill-opacity="1" fill-rule="nonzero"/></g></g><g clip-path="url(#8adeb1674f)"><g clip-path="url(#96731cd209)"><path fill="#9a4f36" d="M 73.402344 44.59375 C 73.402344 44.59375 73.410156 44.359375 73.363281 44.019531 C 73.339844 43.847656 73.300781 43.648438 73.234375 43.445312 C 73.203125 43.34375 73.167969 43.242188 73.121094 43.140625 C 73.078125 43.035156 73.015625 42.945312 72.960938 42.847656 C 72.894531 42.761719 72.828125 42.671875 72.75 42.597656 C 72.667969 42.53125 72.59375 42.457031 72.5 42.414062 C 72.457031 42.390625 72.414062 42.367188 72.375 42.34375 C 72.328125 42.328125 72.28125 42.316406 72.238281 42.304688 C 72.195312 42.289062 72.152344 42.277344 72.113281 42.261719 C 72.070312 42.257812 72.027344 42.253906 71.988281 42.253906 C 71.910156 42.246094 71.835938 42.230469 71.769531 42.238281 C 71.703125 42.242188 71.648438 42.246094 71.601562 42.253906 C 71.507812 42.257812 71.453125 42.261719 71.453125 42.261719 L 71.417969 41.949219 C 71.417969 41.949219 71.476562 41.949219 71.585938 41.949219 C 71.640625 41.949219 71.707031 41.949219 71.78125 41.949219 C 71.855469 41.945312 71.941406 41.972656 72.03125 41.984375 C 72.078125 41.996094 72.125 42.003906 72.175781 42.011719 C 72.222656 42.03125 72.273438 42.054688 72.320312 42.070312 C 72.371094 42.09375 72.421875 42.113281 72.476562 42.136719 C 72.523438 42.167969 72.570312 42.199219 72.617188 42.230469 C 72.722656 42.289062 72.800781 42.382812 72.886719 42.46875 C 72.96875 42.558594 73.03125 42.664062 73.09375 42.765625 C 73.148438 42.875 73.207031 42.980469 73.238281 43.09375 C 73.28125 43.203125 73.308594 43.3125 73.332031 43.421875 C 73.382812 43.636719 73.402344 43.839844 73.410156 44.015625 C 73.429688 44.363281 73.402344 44.59375 73.402344 44.59375 " fill-opacity="1" fill-rule="nonzero"/></g></g><g clip-path="url(#ffda701ccf)"><g clip-path="url(#f4014f2c65)"><path fill="#d17a50" d="M 43.628906 44.058594 C 43.820312 46.644531 42.695312 48.839844 41.113281 48.957031 C 39.535156 49.074219 38.09375 47.074219 37.902344 44.484375 C 37.710938 41.894531 38.835938 39.703125 40.414062 39.582031 C 41.996094 39.464844 43.433594 41.46875 43.628906 44.058594 " fill-opacity="1" fill-rule="nonzero"/></g></g><g clip-path="url(#c2244b4bac)"><g clip-path="url(#cafd9e18e1)"><path fill="#ba6449" d="M 40.738281 47.414062 C 40.691406 47.414062 40.640625 47.40625 40.589844 47.398438 C 40.527344 47.375 40.464844 47.351562 40.402344 47.316406 C 40.28125 47.25 40.164062 47.164062 40.0625 47.066406 C 39.9375 46.953125 39.824219 46.828125 39.714844 46.699219 C 39.964844 46.886719 40.15625 46.953125 40.300781 46.953125 C 40.734375 46.953125 40.765625 46.34375 40.765625 46.34375 C 39.082031 45.25 41.054688 43.589844 41.054688 43.589844 C 39.742188 43.898438 39.703125 44.953125 39.703125 44.953125 C 39.679688 44.570312 39.683594 44.238281 39.710938 43.953125 C 39.734375 43.796875 39.769531 43.625 39.824219 43.445312 C 39.859375 43.34375 39.894531 43.238281 39.941406 43.140625 C 39.984375 43.035156 40.046875 42.945312 40.101562 42.847656 C 40.167969 42.761719 40.234375 42.671875 40.3125 42.597656 C 40.394531 42.53125 40.46875 42.457031 40.5625 42.414062 C 40.605469 42.390625 40.644531 42.367188 40.6875 42.34375 C 40.734375 42.328125 40.777344 42.316406 40.824219 42.304688 C 40.867188 42.289062 40.910156 42.277344 40.949219 42.261719 C 40.992188 42.257812 41.035156 42.253906 41.074219 42.253906 C 41.140625 42.25 41.199219 42.234375 41.257812 42.234375 C 41.269531 42.234375 41.28125 42.234375 41.292969 42.238281 C 41.359375 42.242188 41.414062 42.246094 41.460938 42.253906 C 41.503906 42.253906 41.539062 42.257812 41.566406 42.257812 C 41.59375 42.332031 41.621094 42.410156 41.644531 42.484375 C 41.632812 42.964844 41.628906 43.441406 41.628906 43.910156 C 41.628906 44.054688 41.628906 44.199219 41.628906 44.34375 C 41.628906 44.410156 41.628906 44.480469 41.628906 44.546875 C 41.503906 44.59375 41.382812 44.644531 41.257812 44.707031 C 41.148438 44.757812 41.042969 44.816406 40.941406 44.886719 C 40.835938 44.960938 40.734375 45.039062 40.65625 45.164062 C 40.613281 45.222656 40.585938 45.304688 40.578125 45.386719 C 40.578125 45.46875 40.597656 45.554688 40.636719 45.617188 C 40.71875 45.746094 40.828125 45.824219 40.933594 45.894531 C 41.117188 46.007812 41.3125 46.089844 41.511719 46.15625 C 41.476562 46.402344 41.414062 46.652344 41.316406 46.882812 C 41.265625 47.011719 41.195312 47.132812 41.109375 47.234375 C 41.0625 47.28125 41.015625 47.324219 40.960938 47.355469 C 40.90625 47.390625 40.84375 47.402344 40.78125 47.414062 C 40.769531 47.414062 40.753906 47.414062 40.738281 47.414062 M 39.363281 44.042969 C 39.0625 43.972656 38.980469 43.535156 38.960938 43.328125 C 38.960938 43.316406 38.960938 43.304688 38.964844 43.292969 C 38.976562 43.375 38.984375 43.414062 38.984375 43.414062 C 38.992188 43.414062 38.984375 43.238281 39.015625 42.988281 C 39.03125 42.925781 39.046875 42.863281 39.066406 42.796875 C 39.109375 42.664062 39.164062 42.53125 39.234375 42.410156 C 39.300781 42.289062 39.382812 42.171875 39.480469 42.074219 C 39.523438 42.023438 39.574219 41.976562 39.628906 41.933594 C 39.683594 41.890625 39.734375 41.84375 39.796875 41.8125 C 39.910156 41.734375 40.035156 41.679688 40.164062 41.628906 C 40.296875 41.59375 40.429688 41.546875 40.5625 41.53125 C 40.609375 41.527344 40.652344 41.523438 40.695312 41.523438 C 40.78125 41.523438 40.863281 41.535156 40.945312 41.566406 C 41.136719 41.628906 41.289062 41.769531 41.40625 41.949219 C 41.367188 41.949219 41.328125 41.949219 41.28125 41.949219 C 41.28125 41.949219 41.277344 41.949219 41.277344 41.949219 C 41.203125 41.949219 41.121094 41.972656 41.027344 41.984375 C 40.984375 41.996094 40.9375 42.003906 40.886719 42.011719 C 40.839844 42.03125 40.789062 42.050781 40.738281 42.070312 C 40.691406 42.09375 40.636719 42.113281 40.585938 42.136719 C 40.542969 42.164062 40.496094 42.195312 40.453125 42.226562 C 39.105469 42.546875 39.363281 44.042969 39.363281 44.042969 M 39.453125 41.902344 C 39.546875 41.792969 39.65625 41.699219 39.792969 41.625 C 39.765625 41.640625 39.734375 41.664062 39.707031 41.683594 C 39.644531 41.722656 39.589844 41.773438 39.53125 41.824219 C 39.503906 41.847656 39.476562 41.875 39.453125 41.902344 " fill-opacity="1" fill-rule="nonzero"/></g></g><g clip-path="url(#ce1c1ab3d2)"><g clip-path="url(#531533a570)"><path fill="#9a4f36" d="M 38.949219 43.644531 C 38.910156 43.355469 38.929688 43.0625 38.996094 42.777344 C 39.027344 42.636719 39.078125 42.496094 39.140625 42.363281 C 39.167969 42.292969 39.207031 42.230469 39.246094 42.167969 C 39.285156 42.101562 39.328125 42.042969 39.378906 41.984375 C 39.425781 41.925781 39.476562 41.871094 39.53125 41.824219 C 39.589844 41.773438 39.644531 41.722656 39.707031 41.683594 C 39.828125 41.589844 39.964844 41.53125 40.101562 41.46875 C 40.246094 41.417969 40.382812 41.363281 40.535156 41.339844 C 40.679688 41.316406 40.855469 41.3125 41.007812 41.363281 C 41.164062 41.40625 41.308594 41.492188 41.421875 41.605469 C 41.535156 41.714844 41.621094 41.847656 41.695312 41.980469 C 41.839844 42.25 41.921875 42.539062 41.980469 42.828125 C 42.039062 43.117188 42.070312 43.410156 42.089844 43.699219 C 42.101562 43.847656 42.105469 43.992188 42.105469 44.136719 C 42.109375 44.28125 42.105469 44.4375 42.097656 44.570312 L 42.09375 44.671875 L 42.003906 44.699219 C 41.789062 44.761719 41.570312 44.839844 41.367188 44.933594 C 41.171875 45.027344 40.960938 45.144531 40.859375 45.292969 C 40.832031 45.332031 40.824219 45.367188 40.820312 45.398438 C 40.820312 45.429688 40.820312 45.464844 40.847656 45.5 C 40.886719 45.570312 40.96875 45.640625 41.054688 45.699219 C 41.238281 45.8125 41.453125 45.898438 41.667969 45.980469 L 41.753906 46.011719 L 41.738281 46.09375 C 41.6875 46.394531 41.609375 46.679688 41.476562 46.953125 C 41.414062 47.09375 41.332031 47.226562 41.222656 47.339844 C 41.167969 47.394531 41.105469 47.449219 41.03125 47.484375 C 40.957031 47.523438 40.875 47.542969 40.792969 47.550781 C 40.710938 47.554688 40.628906 47.535156 40.554688 47.511719 C 40.480469 47.484375 40.410156 47.453125 40.347656 47.410156 C 40.222656 47.324219 40.109375 47.226562 40.007812 47.117188 C 39.804688 46.902344 39.636719 46.664062 39.484375 46.417969 C 39.664062 46.644531 39.851562 46.871094 40.0625 47.066406 C 40.164062 47.164062 40.28125 47.25 40.402344 47.316406 C 40.464844 47.351562 40.527344 47.375 40.589844 47.398438 C 40.65625 47.410156 40.71875 47.417969 40.78125 47.414062 C 40.84375 47.402344 40.90625 47.390625 40.960938 47.355469 C 41.015625 47.324219 41.0625 47.28125 41.109375 47.234375 C 41.195312 47.132812 41.265625 47.011719 41.316406 46.882812 C 41.425781 46.625 41.492188 46.34375 41.523438 46.066406 L 41.597656 46.183594 C 41.371094 46.113281 41.144531 46.023438 40.933594 45.894531 C 40.828125 45.824219 40.71875 45.746094 40.636719 45.617188 C 40.597656 45.554688 40.578125 45.46875 40.578125 45.386719 C 40.585938 45.304688 40.613281 45.222656 40.65625 45.164062 C 40.734375 45.039062 40.835938 44.960938 40.941406 44.886719 C 41.042969 44.816406 41.148438 44.757812 41.257812 44.707031 C 41.476562 44.601562 41.699219 44.515625 41.929688 44.445312 L 41.835938 44.570312 L 41.839844 44.140625 C 41.839844 44 41.839844 43.855469 41.832031 43.714844 C 41.816406 43.433594 41.789062 43.152344 41.738281 42.875 C 41.683594 42.601562 41.613281 42.328125 41.488281 42.089844 C 41.367188 41.847656 41.183594 41.644531 40.945312 41.566406 C 40.820312 41.523438 40.703125 41.515625 40.5625 41.53125 C 40.429688 41.546875 40.296875 41.59375 40.164062 41.628906 C 40.035156 41.679688 39.910156 41.734375 39.796875 41.8125 C 39.734375 41.84375 39.683594 41.890625 39.628906 41.933594 C 39.574219 41.976562 39.523438 42.023438 39.480469 42.074219 C 39.382812 42.171875 39.300781 42.289062 39.234375 42.410156 C 39.164062 42.53125 39.109375 42.664062 39.066406 42.796875 C 38.984375 43.066406 38.941406 43.355469 38.949219 43.644531 " fill-opacity="1" fill-rule="nonzero"/></g></g><g clip-path="url(#4799789161)"><g clip-path="url(#722288c2db)"><path fill="#9a4f36" d="M 39.660156 44.59375 C 39.660156 44.59375 39.632812 44.363281 39.652344 44.015625 C 39.660156 43.839844 39.679688 43.636719 39.730469 43.421875 C 39.753906 43.3125 39.78125 43.203125 39.824219 43.09375 C 39.855469 42.980469 39.914062 42.875 39.964844 42.765625 C 40.03125 42.664062 40.09375 42.558594 40.175781 42.46875 C 40.261719 42.382812 40.339844 42.289062 40.441406 42.230469 C 40.492188 42.199219 40.539062 42.167969 40.585938 42.136719 C 40.636719 42.113281 40.691406 42.09375 40.738281 42.070312 C 40.789062 42.050781 40.839844 42.03125 40.886719 42.011719 C 40.9375 42.003906 40.984375 41.996094 41.027344 41.984375 C 41.121094 41.972656 41.207031 41.945312 41.28125 41.949219 C 41.355469 41.949219 41.421875 41.949219 41.476562 41.949219 C 41.585938 41.949219 41.644531 41.949219 41.644531 41.949219 L 41.609375 42.261719 C 41.609375 42.261719 41.554688 42.257812 41.460938 42.253906 C 41.414062 42.246094 41.359375 42.242188 41.292969 42.238281 C 41.222656 42.230469 41.152344 42.246094 41.074219 42.253906 C 41.035156 42.253906 40.992188 42.257812 40.949219 42.261719 C 40.910156 42.277344 40.867188 42.289062 40.824219 42.304688 C 40.777344 42.316406 40.734375 42.328125 40.6875 42.34375 C 40.644531 42.367188 40.605469 42.390625 40.5625 42.414062 C 40.46875 42.457031 40.394531 42.53125 40.3125 42.597656 C 40.234375 42.671875 40.167969 42.761719 40.101562 42.847656 C 40.046875 42.945312 39.984375 43.035156 39.941406 43.140625 C 39.894531 43.238281 39.859375 43.34375 39.824219 43.445312 C 39.761719 43.648438 39.722656 43.847656 39.699219 44.019531 C 39.652344 44.359375 39.660156 44.59375 39.660156 44.59375 " fill-opacity="1" fill-rule="nonzero"/></g></g><g clip-path="url(#cf6b1b6e1d)"><g clip-path="url(#331d4c0281)"><path fill="#f0a176" d="M 71.378906 43.910156 C 71.378906 46.445312 71.375 49.367188 70.4375 52.195312 C 68.328125 58.539062 60.585938 64.414062 56.503906 64.414062 C 52.359375 64.414062 44.546875 58.367188 42.480469 51.917969 C 41.601562 49.175781 41.628906 46.363281 41.628906 43.910156 C 41.628906 35.695312 43.148438 24.945312 56.503906 24.945312 C 69.855469 24.945312 71.378906 35.695312 71.378906 43.910156 " fill-opacity="1" fill-rule="nonzero"/></g></g><g clip-path="url(#a713092776)"><g clip-path="url(#ee25797c71)"><path fill="#d6855a" d="M 56.058594 34.429688 C 51.746094 34.429688 47.953125 32.765625 45.171875 31.050781 C 45.519531 30.316406 45.914062 29.625 46.355469 29 C 46.792969 29.402344 50.167969 32.339844 55.890625 32.339844 C 57.84375 32.339844 60.070312 32 62.550781 31.097656 C 62.550781 31.097656 63.480469 30.898438 64.683594 30.898438 C 66.160156 30.898438 68.050781 31.199219 69.132812 32.542969 C 68.628906 32.457031 68.089844 32.425781 67.542969 32.425781 C 65.140625 32.425781 62.621094 33.078125 62.621094 33.078125 C 60.347656 34.039062 58.140625 34.429688 56.058594 34.429688 " fill-opacity="1" fill-rule="nonzero"/></g></g><g clip-path="url(#8a402d1e94)"><g clip-path="url(#c00eb3b5ca)"><path fill="#c3744e" d="M 56.507812 64.414062 C 56.511719 64.414062 56.511719 64.414062 56.511719 64.414062 C 56.511719 64.414062 56.511719 64.414062 56.507812 64.414062 M 56.515625 64.414062 C 56.515625 64.414062 56.519531 64.414062 56.519531 64.414062 C 56.519531 64.414062 56.515625 64.414062 56.515625 64.414062 M 56.527344 64.414062 L 56.527344 64.414062 M 56.535156 64.414062 L 56.535156 64.414062 M 56.542969 64.414062 L 56.542969 64.414062 M 56.550781 64.414062 L 56.550781 64.414062 M 56.558594 64.414062 C 56.558594 64.414062 56.558594 64.414062 56.5625 64.414062 C 56.558594 64.414062 56.558594 64.414062 56.558594 64.414062 M 56.574219 64.414062 C 56.574219 64.414062 56.578125 64.414062 56.578125 64.414062 C 56.578125 64.414062 56.574219 64.414062 56.574219 64.414062 M 56.582031 64.414062 C 56.585938 64.414062 56.585938 64.414062 56.585938 64.414062 C 56.585938 64.414062 56.585938 64.414062 56.582031 64.414062 M 56.59375 64.414062 L 56.59375 64.414062 M 56.601562 64.414062 L 56.601562 64.414062 M 56.617188 64.414062 C 56.617188 64.414062 56.621094 64.414062 56.621094 64.414062 C 56.621094 64.414062 56.617188 64.414062 56.617188 64.414062 M 56.625 64.414062 C 56.625 64.414062 56.628906 64.414062 56.628906 64.414062 C 56.628906 64.414062 56.625 64.414062 56.625 64.414062 M 56.644531 64.414062 L 56.644531 64.414062 M 56.667969 64.410156 L 56.667969 64.410156 M 56.683594 64.410156 L 56.6875 64.410156 L 56.683594 64.410156 M 56.726562 64.410156 L 56.730469 64.410156 L 56.726562 64.410156 M 56.738281 64.410156 L 56.738281 64.410156 " fill-opacity="1" fill-rule="nonzero"/></g></g><g clip-path="url(#9b525d6b2d)"><g clip-path="url(#b077062481)"><path fill="#d6855a" d="M 56.503906 64.414062 C 52.359375 64.414062 44.546875 58.367188 42.480469 51.917969 C 41.894531 50.09375 41.710938 48.238281 41.652344 46.476562 C 41.648438 46.308594 41.644531 46.136719 41.640625 45.96875 C 41.632812 45.582031 41.628906 45.199219 41.628906 44.824219 C 41.628906 44.730469 41.628906 44.640625 41.628906 44.546875 C 41.628906 44.480469 41.628906 44.410156 41.628906 44.34375 C 41.628906 44.199219 41.628906 44.054688 41.628906 43.910156 C 41.628906 42.851562 41.6875 41.726562 41.8125 40.566406 C 42.21875 38.707031 43.316406 34.207031 45.023438 30.960938 C 45.074219 30.992188 45.121094 31.023438 45.171875 31.050781 C 43.519531 34.53125 42.863281 39.039062 42.863281 42.570312 C 42.863281 45.023438 42.835938 47.839844 43.710938 50.582031 C 45.78125 57.027344 53.59375 63.074219 57.738281 63.074219 C 60.210938 63.074219 64.03125 60.914062 67.125 57.796875 C 63.972656 61.503906 59.585938 64.25 56.753906 64.40625 C 56.746094 64.40625 56.742188 64.40625 56.738281 64.410156 C 56.734375 64.410156 56.730469 64.410156 56.730469 64.410156 L 56.726562 64.410156 C 56.722656 64.410156 56.71875 64.410156 56.710938 64.410156 C 56.703125 64.410156 56.695312 64.410156 56.6875 64.410156 L 56.683594 64.410156 C 56.679688 64.410156 56.675781 64.410156 56.667969 64.410156 C 56.664062 64.410156 56.664062 64.410156 56.660156 64.410156 C 56.65625 64.410156 56.65625 64.410156 56.652344 64.410156 C 56.648438 64.414062 56.648438 64.414062 56.644531 64.414062 C 56.640625 64.414062 56.636719 64.414062 56.636719 64.414062 C 56.632812 64.414062 56.628906 64.414062 56.628906 64.414062 C 56.628906 64.414062 56.625 64.414062 56.625 64.414062 C 56.625 64.414062 56.621094 64.414062 56.621094 64.414062 C 56.621094 64.414062 56.617188 64.414062 56.617188 64.414062 C 56.613281 64.414062 56.609375 64.414062 56.601562 64.414062 C 56.597656 64.414062 56.597656 64.414062 56.59375 64.414062 C 56.589844 64.414062 56.589844 64.414062 56.585938 64.414062 C 56.585938 64.414062 56.585938 64.414062 56.582031 64.414062 C 56.582031 64.414062 56.578125 64.414062 56.578125 64.414062 C 56.578125 64.414062 56.574219 64.414062 56.574219 64.414062 C 56.574219 64.414062 56.570312 64.414062 56.570312 64.414062 C 56.566406 64.414062 56.5625 64.414062 56.5625 64.414062 C 56.558594 64.414062 56.558594 64.414062 56.558594 64.414062 C 56.558594 64.414062 56.554688 64.414062 56.550781 64.414062 C 56.546875 64.414062 56.546875 64.414062 56.542969 64.414062 C 56.539062 64.414062 56.539062 64.414062 56.535156 64.414062 C 56.53125 64.414062 56.53125 64.414062 56.527344 64.414062 C 56.523438 64.414062 56.519531 64.414062 56.519531 64.414062 C 56.519531 64.414062 56.515625 64.414062 56.515625 64.414062 C 56.515625 64.414062 56.515625 64.414062 56.511719 64.414062 C 56.511719 64.414062 56.511719 64.414062 56.507812 64.414062 C 56.507812 64.414062 56.503906 64.414062 56.503906 64.414062 " fill-opacity="1" fill-rule="nonzero"/></g></g><g clip-path="url(#361a2fb200)"><g clip-path="url(#698163889d)"><path fill="#cf7d53" d="M 45.171875 31.050781 C 45.121094 31.023438 45.074219 30.992188 45.023438 30.960938 C 45.417969 30.207031 45.847656 29.523438 46.308594 28.953125 C 46.308594 28.953125 46.324219 28.96875 46.355469 29 C 45.914062 29.625 45.519531 30.316406 45.171875 31.050781 " fill-opacity="1" fill-rule="nonzero"/></g></g><g clip-path="url(#acbed16a2f)"><g clip-path="url(#a8bfe6cb83)"><path fill="#211a1b" d="M 45.199219 38.742188 C 45.199219 38.742188 46.898438 37.230469 48.535156 37.605469 C 50.171875 37.976562 52.714844 37.972656 53.460938 37.140625 C 53.460938 37.140625 47.917969 34.917969 45.199219 38.742188 " fill-opacity="1" fill-rule="nonzero"/></g></g><g clip-path="url(#343a01c34b)"><g clip-path="url(#b1e2c80908)"><path fill="#211a1b" d="M 67.316406 38.742188 C 67.316406 38.742188 65.621094 37.230469 63.980469 37.605469 C 62.34375 37.976562 59.800781 37.972656 59.054688 37.140625 C 59.054688 37.140625 64.597656 34.917969 67.316406 38.742188 " fill-opacity="1" fill-rule="nonzero"/></g></g><g clip-path="url(#4962603fb4)"><g clip-path="url(#9b43da0261)"><path fill="#b05838" d="M 53.851562 50.511719 C 53.851562 50.511719 53.847656 50.484375 53.839844 50.429688 C 53.832031 50.375 53.820312 50.300781 53.832031 50.191406 C 53.839844 50.085938 53.859375 49.953125 53.914062 49.816406 C 53.960938 49.671875 54.039062 49.523438 54.144531 49.371094 C 54.25 49.21875 54.378906 49.0625 54.542969 48.929688 C 54.699219 48.785156 54.886719 48.660156 55.09375 48.554688 C 55.304688 48.453125 55.527344 48.355469 55.765625 48.300781 C 56.007812 48.238281 56.238281 48.21875 56.515625 48.210938 C 56.632812 48.21875 56.734375 48.214844 56.863281 48.234375 C 56.996094 48.25 57.121094 48.269531 57.238281 48.300781 C 57.480469 48.351562 57.703125 48.453125 57.910156 48.550781 C 58.117188 48.660156 58.304688 48.785156 58.460938 48.925781 C 58.625 49.0625 58.757812 49.21875 58.863281 49.371094 C 58.96875 49.523438 59.042969 49.671875 59.089844 49.816406 C 59.144531 49.953125 59.164062 50.085938 59.171875 50.1875 C 59.183594 50.292969 59.171875 50.375 59.164062 50.429688 C 59.15625 50.484375 59.152344 50.511719 59.152344 50.511719 C 59.152344 50.511719 59.144531 50.484375 59.128906 50.433594 C 59.117188 50.378906 59.089844 50.308594 59.050781 50.21875 C 59.007812 50.132812 58.953125 50.03125 58.875 49.925781 C 58.800781 49.820312 58.695312 49.714844 58.585938 49.609375 C 58.46875 49.503906 58.332031 49.402344 58.179688 49.308594 C 58.027344 49.214844 57.855469 49.136719 57.675781 49.0625 C 57.496094 48.996094 57.304688 48.941406 57.105469 48.90625 C 57.007812 48.882812 56.910156 48.875 56.816406 48.863281 C 56.726562 48.847656 56.597656 48.851562 56.488281 48.847656 C 56.3125 48.851562 56.089844 48.863281 55.898438 48.90625 C 55.699219 48.941406 55.507812 48.992188 55.328125 49.0625 C 55.148438 49.136719 54.976562 49.210938 54.824219 49.308594 C 54.671875 49.402344 54.535156 49.503906 54.417969 49.609375 C 54.308594 49.714844 54.203125 49.820312 54.128906 49.925781 C 54.050781 50.03125 53.996094 50.132812 53.957031 50.21875 C 53.914062 50.304688 53.886719 50.378906 53.875 50.433594 C 53.859375 50.484375 53.851562 50.511719 53.851562 50.511719 " fill-opacity="1" fill-rule="nonzero"/></g></g><g clip-path="url(#8e1cfed51e)"><g clip-path="url(#4a353fcb81)"><path fill="#ffffff" d="M 50.441406 53.074219 C 50.441406 53.074219 55.191406 55.78125 62.621094 53.074219 C 62.621094 53.074219 56.753906 61.671875 50.441406 53.074219 " fill-opacity="1" fill-rule="nonzero"/></g></g><g clip-path="url(#034123613b)"><g clip-path="url(#82d25c8b1c)"><path fill="#c7d3df" d="M 50.441406 53.074219 C 50.515625 53.171875 50.585938 53.269531 50.660156 53.363281 C 52.332031 54.597656 56.421875 56.777344 62.347656 53.441406 C 62.582031 53.152344 62.621094 53.074219 62.621094 53.074219 C 55.191406 55.78125 50.441406 53.074219 50.441406 53.074219 " fill-opacity="1" fill-rule="nonzero"/></g></g><g clip-path="url(#13ea7c48d8)"><g clip-path="url(#5aa7fa79c4)"><path fill="#ad6544" d="M 54.78125 58.367188 C 54.78125 58.367188 56.53125 59.203125 58.28125 58.367188 C 58.28125 58.367188 56.765625 61.085938 54.78125 58.367188 " fill-opacity="1" fill-rule="nonzero"/></g></g><g clip-path="url(#6cc9472245)"><g clip-path="url(#6421e4c09e)"><path fill="#d6855a" d="M 56.566406 51.5 C 54.996094 51.5 53.851562 50.84375 53.851562 50.84375 C 54.308594 49.246094 55.941406 49.128906 56.40625 49.128906 C 56.488281 49.128906 56.53125 49.132812 56.53125 49.132812 C 56.5625 49.132812 56.59375 49.132812 56.621094 49.132812 C 58.492188 49.132812 59.152344 50.84375 59.152344 50.84375 C 58.242188 51.335938 57.351562 51.5 56.566406 51.5 " fill-opacity="1" fill-rule="nonzero"/></g></g><g clip-path="url(#8ec8c17ae9)"><g clip-path="url(#3522d39aaa)"><path fill="#211a1b" d="M 52.101562 54.96875 C 51.773438 54.460938 51.5 53.914062 51.300781 53.453125 C 50.738281 53.242188 50.441406 53.074219 50.441406 53.074219 C 51 53.835938 51.554688 54.460938 52.101562 54.96875 " fill-opacity="1" fill-rule="nonzero"/></g></g><g clip-path="url(#d60fb0f904)"><g clip-path="url(#8c1a12cef8)"><path fill="#211a1b" d="M 60.894531 54.960938 C 61.980469 54.011719 62.621094 53.074219 62.621094 53.074219 C 62.363281 53.167969 62.113281 53.253906 61.863281 53.332031 C 61.625 53.816406 61.292969 54.417969 60.894531 54.960938 " fill-opacity="1" fill-rule="nonzero"/></g></g><g clip-path="url(#c0c31a95ed)"><g clip-path="url(#71c464ddaa)"><path fill="#211a1b" d="M 41.636719 41.421875 C 41.636719 41.421875 43.28125 32.695312 46.308594 28.953125 C 46.308594 28.953125 52.273438 34.839844 62.550781 31.097656 C 62.550781 31.097656 67.660156 30 69.414062 32.945312 C 69.414062 32.945312 70.671875 41.421875 71.269531 41.449219 C 71.269531 41.449219 76.640625 33.890625 75.179688 23.539062 C 75.179688 23.539062 71.5 23.878906 67.996094 21.597656 C 67.996094 21.597656 59.632812 11.835938 46.335938 18.921875 C 46.335938 18.921875 45.910156 16.761719 46.707031 14.054688 C 46.707031 14.054688 44.398438 17.71875 44.554688 20.265625 C 44.554688 20.265625 42.222656 19.867188 40.441406 20.347656 C 40.441406 20.347656 42.820312 20.746094 43.648438 21.300781 C 43.648438 21.300781 36.484375 24.53125 41.636719 41.421875 " fill-opacity="1" fill-rule="nonzero"/></g></g><g clip-path="url(#182b9662d3)"><g clip-path="url(#b383028c9b)"><path fill="#4a3835" d="M 58.160156 28.71875 C 56.015625 28.71875 53.570312 28.242188 50.890625 26.949219 C 48.136719 25.625 45.882812 25.144531 44.050781 25.144531 C 42.570312 25.144531 41.367188 25.460938 40.40625 25.902344 C 40.898438 24.28125 41.59375 23.195312 42.21875 22.484375 C 42.816406 22.390625 43.542969 22.320312 44.375 22.320312 C 46.476562 22.320312 49.21875 22.773438 52.101562 24.496094 C 55.054688 26.253906 58.019531 26.953125 60.679688 26.953125 C 63.570312 26.949219 66.105469 26.128906 67.886719 24.945312 C 67.886719 24.945312 64.203125 28.71875 58.160156 28.71875 " fill-opacity="1" fill-rule="nonzero"/></g></g><g clip-path="url(#77fdc4eb90)"><g clip-path="url(#dafdf99af0)"><path fill="#337393" d="M 73.148438 116.066406 C 73.347656 114.621094 73.558594 113.101562 73.769531 111.535156 C 50.421875 117.851562 37.882812 103.492188 37.882812 103.488281 C 38.464844 107.902344 39.050781 112.242188 39.574219 116.066406 L 73.148438 116.066406 " fill-opacity="1" fill-rule="nonzero"/></g></g><g clip-path="url(#c904415cc1)"><g clip-path="url(#6ef9c06cf0)"><path fill="#211a1b" d="M 52.550781 44.652344 C 52.550781 45.941406 51.972656 46.984375 51.257812 46.984375 C 50.546875 46.984375 49.96875 45.941406 49.96875 44.652344 C 49.96875 43.359375 50.546875 42.3125 51.257812 42.3125 C 51.972656 42.3125 52.550781 43.359375 52.550781 44.652344 " fill-opacity="1" fill-rule="nonzero"/></g></g><g clip-path="url(#0420a35abc)"><g clip-path="url(#9d151c77bb)"><path fill="#211a1b" d="M 63.035156 44.652344 C 63.035156 45.941406 62.457031 46.984375 61.746094 46.984375 C 61.03125 46.984375 60.457031 45.941406 60.457031 44.652344 C 60.457031 43.359375 61.03125 42.3125 61.746094 42.3125 C 62.457031 42.3125 63.035156 43.359375 63.035156 44.652344 " fill-opacity="1" fill-rule="nonzero"/></g></g></svg>